<?xml version="1.0" encoding="iso-8859-1"?>
<!-- Generator: Adobe Illustrator 19.0.0, SVG Export Plug-In . SVG Version: 6.00 Build 0)  -->
<svg xmlns="http://www.w3.org/2000/svg" xmlns:xlink="http://www.w3.org/1999/xlink" version="1.1" id="Layer_1" x="0px" y="0px" viewBox="0 0 511.999 511.999" style="enable-background:new 0 0 511.999 511.999;" xml:space="preserve">
<g>
	<g>
		<g>
			<path d="M230.587,209.216c1.992,1.152,4.257,1.761,6.551,1.761c4.672,0,9.025-2.516,11.355-6.563l39.038-67.754     c3.606-6.258,1.455-14.29-4.793-17.904L223.337,84.39c-1.991-1.151-4.256-1.761-6.551-1.761c-4.672,0-9.024,2.515-11.356,6.563     l-39.038,67.754c-3.605,6.257-1.455,14.29,4.793,17.904L230.587,209.216z M217.479,98.33l56.119,32.468l-37.151,64.478     l-56.119-32.466L217.479,98.33z"/>
			<path d="M316.488,319.362c2.332,4.048,6.683,6.563,11.355,6.563c2.296,0,4.562-0.609,6.553-1.762l67.615-39.117     c6.249-3.614,8.401-11.647,4.794-17.904l-34.296-59.524c-2.332-4.048-6.683-6.563-11.355-6.563c-2.296,0-4.562,0.61-6.552,1.762     l-67.617,39.117c-6.248,3.615-8.398,11.647-4.792,17.904L316.488,319.362z M360.462,216.756l32.408,56.246l-64.336,37.22     l-32.407-56.247L360.462,216.756z"/>
			<path d="M483.831,349.953H344.317l120.164-69.518c13.434-7.771,18.055-25.042,10.301-38.5l-45.196-78.442     c-5.013-8.701-14.362-14.105-24.4-14.105c-4.919,0-9.782,1.309-14.061,3.783l-120.809,69.891l69.366-120.39     c7.755-13.457,3.134-30.729-10.301-38.5L251.1,18.884c-6.509-3.768-14.094-4.771-21.355-2.823     c-7.27,1.947-13.345,6.615-17.106,13.144l-70.251,121.926c-2.068,3.589-0.835,8.175,2.754,10.243     c3.589,2.071,8.174,0.835,10.244-2.754l70.251-121.926c1.758-3.052,4.596-5.232,7.99-6.143c3.387-0.906,6.923-0.44,9.961,1.318     l78.282,45.288c6.287,3.637,8.448,11.724,4.815,18.026l-82.337,142.903l-22.88,13.237l6.638-11.522     c3.605-6.257,1.455-14.29-4.793-17.904l-59.402-34.365c-1.991-1.151-4.256-1.761-6.551-1.761c-4.671,0-9.023,2.515-11.356,6.563     l-39.038,67.754c-3.605,6.257-1.455,14.29,4.793,17.904l31.805,18.4l-14.596,8.445l-24.483-14.165     c-1.991-1.151-4.256-1.761-6.551-1.761c-4.672,0-9.024,2.516-11.356,6.563L57.29,346.302l-15.066,8.716l97.937-169.978     c2.068-3.589,0.835-8.176-2.754-10.243c-3.589-2.07-8.175-0.836-10.244,2.754L9.803,381.238     c-16.887,29.308-11.249,65.541,11.474,88.49c-0.492-0.605-0.385-0.472,0.162,0.197c13.473,16.457,33.932,26.984,56.81,26.984     H483.83c15.533,0,28.17-12.637,28.17-28.17v-90.618C512,362.589,499.364,349.953,483.831,349.953z M120.9,265.95l37.151-64.479     l56.119,32.466l-18.672,32.408l-36.957,21.38L120.9,265.95z M98.623,304.613l15.365,8.889l-30.73,17.778L98.623,304.613z      M398.637,166.156c1.998-1.156,4.263-1.768,6.548-1.768c4.69,0,9.06,2.526,11.403,6.593l45.196,78.442     c3.632,6.303,1.472,14.391-4.814,18.026l-142.61,82.503h-24.542l9.262-5.357c6.248-3.615,8.398-11.647,4.792-17.904     l-34.295-59.524c-2.332-4.048-6.683-6.563-11.355-6.563c-2.295,0-4.562,0.609-6.553,1.762l-67.616,39.117     c-6.249,3.614-8.399,11.647-4.793,17.904l17.611,30.565h-16.837l-13.389-23.236c-2.333-4.048-6.683-6.563-11.355-6.563     c-2.295,0-4.561,0.61-6.552,1.762l-48.466,28.039H80.938L398.637,166.156z M259.862,349.953h-45.679l-20.988-36.428     l64.336-37.219l32.407,56.247L259.862,349.953z M162.722,349.953h-32.494l24.37-14.099L162.722,349.953z M497,468.741     c0,7.261-5.907,13.169-13.169,13.169H78.25c-32.208,0-58.411-26.203-58.411-58.411v-0.134c0-32.208,26.204-58.411,58.411-58.411     h405.581c7.261,0,13.169,5.907,13.169,13.169V468.741z"/>
			<path d="M189.384,375.953h-78.066c-7.227,0-13.108,5.88-13.108,13.107v68.742c0,7.228,5.88,13.108,13.108,13.108h78.066     c7.228,0,13.108-5.88,13.108-13.108V389.06C202.493,381.833,196.612,375.953,189.384,375.953z M187.492,455.91h-74.279v-64.956     h74.279V455.91z"/>
			<path d="M308.24,375.953h-78.067c-7.228,0-13.108,5.88-13.108,13.107v68.742c0,7.228,5.88,13.108,13.108,13.108h78.067     c7.227,0,13.107-5.88,13.107-13.108V389.06C321.347,381.833,315.467,375.953,308.24,375.953z M306.346,455.91h-74.279v-64.956     h74.279V455.91z"/>
			<path d="M429.699,375.953h-78.066c-7.228,0-13.108,5.88-13.108,13.107v68.742c0,7.228,5.88,13.108,13.108,13.108h78.066     c7.228,0,13.108-5.88,13.108-13.108v-21.534c0-4.143-3.357-7.5-7.5-7.5s-7.5,3.357-7.5,7.5v19.642h-74.279v-64.956h74.279v14.485     c0,4.143,3.357,7.5,7.5,7.5s7.5-3.357,7.5-7.5V389.06C442.807,381.833,436.928,375.953,429.699,375.953z"/>
		</g>
	</g>
</g>
<g>
</g>
<g>
</g>
<g>
</g>
<g>
</g>
<g>
</g>
<g>
</g>
<g>
</g>
<g>
</g>
<g>
</g>
<g>
</g>
<g>
</g>
<g>
</g>
<g>
</g>
<g>
</g>
<g>
</g>
</svg>
