<?xml version="1.0" encoding="iso-8859-1"?>
<!-- Generator: Adobe Illustrator 19.0.0, SVG Export Plug-In . SVG Version: 6.00 Build 0)  -->
<svg xmlns="http://www.w3.org/2000/svg" xmlns:xlink="http://www.w3.org/1999/xlink" version="1.1" id="Layer_1" x="0px" y="0px" viewBox="0 0 511.999 511.999" style="enable-background:new 0 0 511.999 511.999;" xml:space="preserve">
<g>
	<g>
		<path d="M506.055,79.784L432.201,5.871C428.419,2.084,423.402,0,418.074,0c-7.875,0-14.835,4.427-18.161,11.554l-10.518,22.533    c-5.059,10.837-2.779,23.802,5.672,32.26l8.955,8.962L192.399,287.103l-4.931,3.296c-4.294,2.87-9.676,3.329-14.393,1.229    l-11.084-4.937L138.22,262.9c-3.002-3.005-6.994-4.659-11.239-4.659c-4.246,0-8.238,1.654-11.24,4.659l-35.13,35.158    c-2.927,2.929-2.925,7.676,0.004,10.602c2.929,2.926,7.676,2.924,10.603-0.005l35.13-35.159c0.349-0.348,0.915-0.348,1.264,0    l21.221,21.238l-10.97,26.629c-0.382,0.928-0.728,1.861-1.04,2.799c-0.012,0.035-0.025,0.07-0.037,0.106    c-3.181,9.634-2.672,19.677,1.206,28.574c0.039,0.088,0.073,0.178,0.113,0.266c0.113,0.254,0.235,0.505,0.353,0.757    c0.091,0.193,0.176,0.387,0.27,0.578c0.094,0.191,0.195,0.379,0.292,0.569c0.127,0.25,0.251,0.501,0.384,0.748    c0.028,0.052,0.058,0.103,0.086,0.154c1.855,3.425,4.236,6.641,7.128,9.547c0.038,0.039,0.077,0.077,0.115,0.115l0.001,0.001    c0.001,0.001,0.002,0.002,0.003,0.003c0.441,0.439,0.891,0.863,1.344,1.279c0.136,0.125,0.274,0.245,0.411,0.368    c0.34,0.303,0.683,0.599,1.03,0.889c0.14,0.117,0.279,0.234,0.419,0.349c0.462,0.376,0.928,0.744,1.401,1.097    c0.012,0.009,0.023,0.019,0.035,0.027c0.485,0.361,0.977,0.706,1.473,1.042c0.148,0.101,0.298,0.198,0.448,0.296    c0.367,0.242,0.737,0.478,1.111,0.707c0.155,0.095,0.309,0.191,0.465,0.284c0.485,0.289,0.973,0.569,1.466,0.836    c0.027,0.015,0.054,0.031,0.082,0.046c0.519,0.279,1.045,0.542,1.573,0.797c0.159,0.077,0.319,0.149,0.478,0.224    c0.391,0.182,0.784,0.358,1.18,0.526c0.165,0.071,0.33,0.142,0.497,0.21c0.505,0.207,1.012,0.406,1.522,0.591    c0.039,0.014,0.076,0.03,0.115,0.044c0.548,0.197,1.102,0.378,1.656,0.551c0.163,0.051,0.326,0.097,0.49,0.146    c0.414,0.123,0.829,0.239,1.247,0.347c0.17,0.044,0.339,0.089,0.509,0.131c0.529,0.13,1.06,0.252,1.593,0.36    c0.037,0.008,0.074,0.017,0.111,0.024c0.574,0.115,1.151,0.213,1.728,0.302c0.157,0.024,0.315,0.045,0.473,0.067    c0.44,0.062,0.881,0.117,1.323,0.164c0.165,0.018,0.331,0.036,0.496,0.051c0.554,0.052,1.109,0.095,1.664,0.124    c0.029,0.001,0.058,0.004,0.088,0.006c0.593,0.029,1.189,0.042,1.783,0.044c0.051,0,0.101,0.004,0.152,0.004    c0.096,0,0.193-0.007,0.289-0.007c0.464-0.003,0.929-0.015,1.394-0.034c0.16-0.007,0.32-0.013,0.48-0.021    c0.579-0.031,1.159-0.073,1.738-0.129c0.016-0.001,0.033-0.002,0.049-0.004c0.6-0.06,1.2-0.136,1.799-0.223    c0.158-0.023,0.316-0.05,0.474-0.074c0.454-0.072,0.909-0.151,1.362-0.238c0.168-0.032,0.336-0.063,0.504-0.098    c0.579-0.119,1.158-0.247,1.735-0.391c0.015-0.004,0.029-0.007,0.044-0.01c0.591-0.149,1.18-0.315,1.768-0.491    c0.17-0.051,0.339-0.105,0.509-0.158c0.438-0.137,0.875-0.281,1.311-0.433c0.172-0.06,0.344-0.119,0.516-0.181    c0.584-0.212,1.167-0.433,1.746-0.672l26.596-10.974l21.215,21.231c0.354,0.354,0.354,0.93,0,1.284l-86.163,86.233    c-24.118,24.137-60.135,31.465-91.754,18.663l-20.277-8.209c-5.235-2.119-9.438-6.348-11.528-11.6l-7.788-19.569    c-12.552-31.536-5.165-67.422,18.818-91.424l30.029-30.052c2.927-2.929,2.925-7.676-0.004-10.602s-7.676-2.924-10.602,0.005    l-30.029,30.052C1.11,377.624-7.582,419.846,7.185,456.95l7.788,19.569c3.596,9.034,10.825,16.307,19.833,19.954l20.277,8.209    c12.164,4.924,24.876,7.317,37.475,7.317c25.949-0.001,51.406-10.158,70.514-29.283l86.163-86.233    c6.192-6.198,6.192-16.282,0-22.479l-23.771-23.789l-4.935-11.098c-2.103-4.726-1.644-10.115,1.227-14.418l3.405-5.102    L385.537,159.09c2.927-2.929,2.925-7.676-0.004-10.602s-7.676-2.924-10.603,0.005L213.893,309.66    c-0.537,0.537-0.974,1.136-1.312,1.773l-3.298,4.942c-5.742,8.604-6.66,19.384-2.455,28.836l2.369,5.327l-24.101,9.944    c-11.615,4.796-21.983,0.271-27.81-5.56c-0.001,0-0.001-0.002-0.002-0.002c-5.829-5.834-10.349-16.213-5.556-27.847l9.935-24.117    l5.31,2.365c9.449,4.211,20.225,3.292,28.827-2.457l5.547-3.708c0.409-0.273,0.79-0.586,1.138-0.935L414.621,85.915l6.541,6.546    l4.877,4.881l-29.626,29.649c-2.927,2.929-2.925,7.676,0.004,10.602s7.676,2.925,10.602-0.005l29.617-29.64l8.973,8.98    c5.388,5.393,12.555,8.363,20.179,8.363h0.001c4.198,0,8.26-0.903,12.071-2.685l22.514-10.527    c5.906-2.761,10.106-8.244,11.237-14.668C512.741,90.988,510.664,84.398,506.055,79.784z M496.843,94.814    c-0.136,0.775-0.684,2.686-2.82,3.685l-22.514,10.527c-1.807,0.845-3.732,1.273-5.72,1.273c-3.617,0-7.017-1.409-9.572-3.967    l-14.484-14.496l-21.808-21.827c-0.002-0.001-0.003-0.003-0.005-0.004l-14.246-14.256c-4.014-4.018-5.095-10.173-2.693-15.32    L413.5,17.898c0.999-2.14,3.018-2.902,4.574-2.902c0.934,0,2.303,0.256,3.52,1.473l73.854,73.914    C497.117,92.053,496.979,94.038,496.843,94.814z"/>
	</g>
</g>
<g>
</g>
<g>
</g>
<g>
</g>
<g>
</g>
<g>
</g>
<g>
</g>
<g>
</g>
<g>
</g>
<g>
</g>
<g>
</g>
<g>
</g>
<g>
</g>
<g>
</g>
<g>
</g>
<g>
</g>
</svg>
