<?xml version="1.0" encoding="iso-8859-1"?>
<!-- Generator: Adobe Illustrator 19.0.0, SVG Export Plug-In . SVG Version: 6.00 Build 0)  -->
<svg xmlns="http://www.w3.org/2000/svg" xmlns:xlink="http://www.w3.org/1999/xlink" version="1.1" id="Layer_1" x="0px" y="0px" viewBox="0 0 512 512" style="enable-background:new 0 0 512 512;" xml:space="preserve">
<g>
	<g>
		<g>
			<path d="M378.396,239.432c-4.143,0-7.5,3.357-7.5,7.5v10.531c0,4.143,3.357,7.5,7.5,7.5s7.5-3.357,7.5-7.5v-10.531     C385.896,242.79,382.538,239.432,378.396,239.432z"/>
			<path d="M504.5,258.982c4.143,0,7.5-3.357,7.5-7.5v-35.505c0-1.863-0.534-3.676-1.545-5.245l-48.844-75.713     c-2.463-3.815-6.645-6.093-11.186-6.093h-90.758c-7.34,0-13.311,5.97-13.311,13.308v165.278H325.24v-33.171     c11.854-13.219,19.08-30.669,19.08-49.779v-19.946c0-41.162-33.488-74.649-74.65-74.649h-49.223     c-3.257-11.186-13.598-19.386-25.825-19.386h-58.778c-12.227,0-22.568,8.2-25.825,19.386H101c-4.143,0-7.5,3.357-7.5,7.5     s3.357,7.5,7.5,7.5h168.67c32.892,0,59.65,26.759,59.65,59.649v19.946c0,18.318-8.306,34.726-21.342,45.677     c-0.166,0.139-0.328,0.283-0.496,0.421c-0.562,0.462-1.137,0.908-1.716,1.349c-0.299,0.227-0.599,0.452-0.902,0.674     c-0.552,0.405-1.107,0.804-1.673,1.19c-0.346,0.235-0.698,0.458-1.049,0.687c-0.944,0.615-1.907,1.203-2.887,1.765     c-0.436,0.25-0.867,0.506-1.308,0.745c-0.524,0.283-1.058,0.548-1.591,0.816c-0.46,0.231-0.921,0.46-1.386,0.679     c-0.533,0.251-1.07,0.494-1.612,0.73c-0.494,0.214-0.992,0.417-1.491,0.617c-0.523,0.211-1.044,0.426-1.575,0.622     c-0.881,0.325-1.77,0.629-2.666,0.911c-5.67,1.794-11.702,2.767-17.958,2.767H74.649c-4.937,0-9.732-0.614-14.323-1.75     c-2.273-0.561-4.51-1.26-6.699-2.086c-0.165-0.062-0.326-0.13-0.49-0.194c-0.887-0.344-1.766-0.71-2.635-1.096     c-0.251-0.112-0.501-0.225-0.75-0.34c-0.799-0.368-1.589-0.757-2.371-1.16c-0.246-0.127-0.496-0.249-0.74-0.379     c-0.936-0.499-1.859-1.021-2.768-1.568c-0.222-0.135-0.439-0.277-0.66-0.415c-0.72-0.447-1.431-0.908-2.132-1.385     c-0.458-0.313-0.907-0.64-1.356-0.965c-0.4-0.289-0.797-0.581-1.19-0.88c-0.509-0.388-1.013-0.782-1.509-1.186     c-0.294-0.239-0.581-0.486-0.871-0.731C23.228,259.126,15,242.791,15,224.562v-19.946c0-31.591,24.678-57.748,56.182-59.551     c4.135-0.236,7.296-3.78,7.059-7.916c-0.235-4.136-3.773-7.313-7.916-7.059C30.891,132.345,0,165.082,0,204.616v19.946     c0,20.856,8.607,39.732,22.443,53.29v29.661H21.22c-8.686,0-15.751,7.065-15.751,15.75v11.779     c0,8.686,7.065,15.751,15.751,15.751h33.389c0-0.001,0-0.002,0-0.003c1.936,28.24,25.525,50.628,54.262,50.628     s52.327-22.388,54.262-50.628c0,0.001,0,0.002,0,0.003h195.775c0-0.001,0-0.002,0-0.003c1.936,28.24,25.525,50.628,54.262,50.628     s52.327-22.388,54.262-50.628c0,0.001,0,0.002,0,0.003h24.836c10.88,0,19.73-8.851,19.73-19.73v-16.05V282.15     c0-4.143-3.357-7.5-7.5-7.5s-7.5,3.357-7.5,7.5v25.364h-46.524c-9.748-9.196-22.874-14.851-37.305-14.851     c-14.431,0-27.557,5.655-37.305,14.851h-14.509V143.926h88.149L497,217.546v33.937C497,255.624,500.357,258.982,504.5,258.982z      M126.62,129.966c2.184-2.675,5.508-4.386,9.224-4.386h58.778c3.716,0,7.04,1.711,9.224,4.386H126.62z M296.889,294.084h0.002     c0.415-0.163,0.819-0.349,1.23-0.519c0.364-0.151,0.727-0.303,1.088-0.459c0.775-0.335,1.544-0.684,2.308-1.045     c0.328-0.155,0.654-0.313,0.979-0.473c0.789-0.387,1.57-0.787,2.344-1.202c0.277-0.149,0.552-0.3,0.826-0.452     c0.813-0.449,1.619-0.911,2.415-1.39c0.211-0.127,0.42-0.257,0.63-0.387c0.509-0.313,1.027-0.612,1.528-0.938v20.293h-13.35     V294.084z M269.67,299.212c4.163,0,8.241-0.358,12.221-1.017v9.317H146.176c-3.427-3.233-7.263-6.036-11.436-8.3H269.67z      M37.443,289.265c0.272,0.156,0.553,0.296,0.827,0.449c0.578,0.324,1.161,0.64,1.748,0.948c0.454,0.238,0.909,0.473,1.368,0.702     c0.692,0.346,1.39,0.679,2.094,1.004c0.387,0.178,0.773,0.355,1.163,0.526c0.774,0.341,1.556,0.667,2.343,0.982     c0.345,0.138,0.689,0.276,1.036,0.409c0.829,0.318,1.666,0.617,2.509,0.906c0.198,0.068,0.393,0.147,0.592,0.214v12.107h-13.68     V289.265z M55.642,335.793H21.22c-0.414-0.001-0.751-0.337-0.751-0.752v-11.779c0-0.414,0.337-0.75,0.751-0.75h8.724h28.679     h1.715C58.229,326.664,56.631,331.116,55.642,335.793z M66.122,298.711c2.801,0.32,5.643,0.501,8.527,0.501h8.353     c-4.173,2.264-8.009,5.068-11.436,8.3h-5.444V298.711z M108.871,386.417c-21.729,0-39.406-17.665-39.406-39.378     c0-21.713,17.678-39.378,39.406-39.378c21.728,0,39.406,17.665,39.406,39.378C148.277,368.752,130.6,386.417,108.871,386.417z      M497,322.512v8.55c0,2.608-2.122,4.73-4.73,4.73H466.4c-0.988-4.677-2.586-9.128-4.695-13.28H497z M413.171,307.661     c21.728,0,39.406,17.665,39.406,39.378c0,21.713-17.678,39.378-39.406,39.378c-21.729,0-39.406-17.665-39.406-39.378     C373.765,325.327,391.443,307.661,413.171,307.661z M364.637,322.511v0.001c-2.109,4.152-3.707,8.604-4.695,13.28H162.1     c-0.988-4.677-2.586-9.129-4.696-13.281H364.637z"/>
			<path d="M108.871,320.005c-14.913,0-27.046,12.128-27.046,27.034s12.133,27.033,27.046,27.033     c14.913,0,27.046-12.127,27.046-27.033C135.917,332.134,123.784,320.005,108.871,320.005z M108.871,359.073     c-6.643,0-12.046-5.398-12.046-12.033c0-6.636,5.403-12.034,12.046-12.034c6.643,0,12.046,5.398,12.046,12.034     C120.917,353.674,115.514,359.073,108.871,359.073z"/>
			<path d="M413.171,374.072c14.913,0,27.046-12.127,27.046-27.033c0-14.906-12.133-27.034-27.046-27.034     s-27.046,12.128-27.046,27.034S398.258,374.072,413.171,374.072z M413.171,335.007c6.643,0,12.046,5.398,12.046,12.034     c0,6.634-5.404,12.033-12.046,12.033c-6.643,0-12.046-5.398-12.046-12.033C401.125,340.405,406.528,335.007,413.171,335.007z"/>
			<path d="M486.299,223.54c0-1.869-0.536-3.687-1.545-5.245l-37.604-58.29c-2.178-3.377-5.878-5.394-9.898-5.394h-53.417     c-6.494,0-11.777,5.282-11.777,11.774v55.059c0,6.493,5.283,11.775,11.777,11.775h92.784     C481.957,233.219,486.299,228.877,486.299,223.54z M387.058,218.219v-48.608h48.439l31.357,48.608H387.058z"/>
		</g>
	</g>
</g>
<g>
</g>
<g>
</g>
<g>
</g>
<g>
</g>
<g>
</g>
<g>
</g>
<g>
</g>
<g>
</g>
<g>
</g>
<g>
</g>
<g>
</g>
<g>
</g>
<g>
</g>
<g>
</g>
<g>
</g>
</svg>
