<?xml version="1.0" encoding="iso-8859-1"?>
<!-- Generator: Adobe Illustrator 19.0.0, SVG Export Plug-In . SVG Version: 6.00 Build 0)  -->
<svg xmlns="http://www.w3.org/2000/svg" xmlns:xlink="http://www.w3.org/1999/xlink" version="1.1" id="Layer_1" x="0px" y="0px" viewBox="0 0 512.001 512.001" style="enable-background:new 0 0 512.001 512.001;" xml:space="preserve">
<g>
	<g>
		<g>
			<path d="M298.785,232.974c-3.727-1.808-8.213-0.253-10.022,3.472l-12.587,25.927c-1.809,3.727-0.255,8.213,3.472,10.022     c1.055,0.512,2.171,0.755,3.27,0.755c2.783,0,5.456-1.556,6.753-4.227l12.587-25.927     C304.065,239.27,302.512,234.784,298.785,232.974z"/>
			<path d="M304.9,272.395c1.055,0.512,2.171,0.755,3.27,0.755c2.783,0,5.456-1.556,6.753-4.227l12.587-25.927     c1.809-3.727,0.255-8.213-3.472-10.022c-3.727-1.808-8.214-0.253-10.022,3.472l-12.587,25.927     C299.62,266.099,301.174,270.585,304.9,272.395z"/>
			<path d="M121.119,258.148h-17.117c-4.143,0-7.5,3.357-7.5,7.5s3.357,7.5,7.5,7.5h17.117c4.143,0,7.5-3.357,7.5-7.5     S125.262,258.148,121.119,258.148z"/>
			<path d="M86.106,318.383c-16.548,0-30.01,13.462-30.01,30.008c0,16.547,13.462,30.009,30.01,30.009     c16.547,0,30.009-13.462,30.009-30.009C116.115,331.845,102.653,318.383,86.106,318.383z M86.106,363.4     c-8.276,0-15.01-6.732-15.01-15.009c0-8.275,6.733-15.008,15.01-15.008c8.277,0,15.009,6.732,15.009,15.008     C101.115,356.668,94.383,363.4,86.106,363.4z"/>
			<path d="M219.911,147.702c-1.587-3.328-4.995-5.479-8.683-5.479h-91.083c-5.304,0-9.618,4.315-9.618,9.619v49.308     c0,1.798,0.502,3.555,1.454,5.086l24.983,40.102c1.768,2.839,4.819,4.534,8.164,4.534h103.663c5.304,0,9.618-4.314,9.618-9.618     V230.71c0-1.421-0.323-2.851-0.935-4.136L219.911,147.702z M243.41,235.871h-95.293l-22.59-36.261v-42.388h82.304l35.579,74.702     V235.871z"/>
			<path d="M494.494,301.405h-13.868c-2.151-6.669-5.081-13.087-8.761-19.113c-2.159-3.535-6.778-4.649-10.31-2.491     c-3.535,2.159-4.65,6.774-2.491,10.31c2.205,3.61,4.086,7.39,5.636,11.295h-10.932c-10.369-21.907-32.683-37.102-58.487-37.102     c-25.805,0-48.119,15.195-58.488,37.102h-10.895c0.046-0.114,0.097-0.225,0.143-0.339c0.375-0.927,0.772-1.844,1.183-2.755     c0.193-0.427,0.391-0.85,0.592-1.273c0.294-0.621,0.601-1.235,0.912-1.847c0.337-0.661,0.68-1.317,1.036-1.966     c0.34-0.623,0.684-1.243,1.042-1.855c0.362-0.618,0.737-1.228,1.116-1.835c0.17-0.272,0.342-0.543,0.515-0.814     c6.325-9.845,14.891-18.117,24.978-24.082c0.129-0.076,0.26-0.151,0.39-0.227c1.181-0.689,2.386-1.339,3.607-1.964     c0.374-0.191,0.743-0.388,1.122-0.573c0.511-0.251,1.03-0.488,1.548-0.727c0.663-0.305,1.331-0.603,2.005-0.89     c0.37-0.158,0.738-0.32,1.111-0.472c1.093-0.444,2.199-0.865,3.32-1.259c0.655-0.231,1.313-0.457,1.977-0.67     c0.123-0.04,0.246-0.079,0.368-0.119c7.079-2.235,14.611-3.443,22.42-3.443c16.375,0,31.918,5.199,44.947,15.035     c3.307,2.495,8.01,1.838,10.505-1.468c2.495-3.306,1.838-8.009-1.468-10.505c-15.653-11.816-34.321-18.063-53.984-18.063     c-5.592,0-11.06,0.532-16.371,1.516v-11.667c0-13.997-11.389-25.385-25.387-25.385h-74.109l-34.701-72.862h22.391     c6.494,0,11.777-5.283,11.777-11.777v-13.992c0-6.494-5.283-11.777-11.777-11.777H140.25c-4.143,0-7.5,3.357-7.5,7.5     c0,4.143,3.357,7.5,7.5,7.5h123.631v7.547h-31.034c-0.005,0-0.009-0.001-0.014-0.001H89.787c-0.007,0-0.013,0.001-0.019,0.001     h-7.895v-7.547h27.919c4.143,0,7.5-3.357,7.5-7.5c0-4.143-3.357-7.5-7.5-7.5H78.649c-6.493,0-11.776,5.283-11.776,11.777v13.992     c0,6.494,5.283,11.777,11.776,11.777h3.638v107.065H71.141v-41.018c0-4.143-3.357-7.5-7.5-7.5h-2.569v-17.019     c0-6.531-5.313-11.845-11.845-11.845H42.16c-4.143,0-7.5,3.357-7.5,7.5s3.357,7.5,7.5,7.5h3.911v13.863h-2.569     c-4.143,0-7.5,3.357-7.5,7.5v41.018h-3.914c-4.143,0-7.5,3.357-7.5,7.5v36.938h-9.726C6.667,282.4,0,289.067,0,297.262v34.287     c0,8.195,6.667,14.862,14.862,14.862h9.776c-0.021,0.659-0.05,1.316-0.05,1.979c0,33.92,27.597,61.517,61.519,61.517     c31.156,0,56.959-23.286,60.962-53.364h162.874c11.659,36,45.505,62.107,85.339,62.107s73.679-26.107,85.338-62.107h13.875     c9.652,0,17.506-7.854,17.506-17.506V318.91C512,309.258,504.146,301.405,494.494,301.405z M24.588,331.412H15V297.4h9.588     V331.412z M395.281,279.303c17.197,0,32.376,8.786,41.296,22.102h-82.593C362.904,288.089,378.084,279.303,395.281,279.303z      M51.002,204.445h5.139v33.518h-5.139V204.445z M132.61,348.968c-0.311,25.384-21.047,45.94-46.504,45.94     c-25.65,0-46.519-20.867-46.519-46.517c0-2.836,0.269-5.609,0.758-8.306c0.108-0.601,0.228-1.198,0.359-1.79     c0.032-0.145,0.067-0.289,0.1-0.434c0.12-0.519,0.246-1.035,0.383-1.546c0.079-0.295,0.165-0.587,0.25-0.88     c0.103-0.357,0.205-0.715,0.316-1.069c4.809-15.172,17.2-27.002,32.708-31.014c0.034-0.009,0.069-0.017,0.103-0.026     c0.658-0.168,1.322-0.32,1.99-0.46c0.141-0.029,0.282-0.058,0.423-0.086c0.57-0.114,1.144-0.215,1.721-0.308     c0.196-0.031,0.391-0.063,0.587-0.092c0.539-0.079,1.082-0.146,1.626-0.207c0.214-0.024,0.428-0.051,0.643-0.072     c0.568-0.055,1.141-0.096,1.715-0.131c0.183-0.011,0.364-0.028,0.548-0.037c0.759-0.037,1.522-0.058,2.289-0.058     c25.646,0,46.511,20.86,46.518,46.503l-0.015,0.563C132.609,348.95,132.61,348.959,132.61,348.968z M275.423,323.94v17.604     H147.246c-0.056-0.506-0.135-1.004-0.203-1.506c-0.053-0.392-0.098-0.787-0.159-1.177c-0.105-0.673-0.232-1.339-0.359-2.005     c-0.058-0.306-0.106-0.616-0.169-0.921c-0.199-0.962-0.419-1.916-0.662-2.861c-0.059-0.231-0.131-0.457-0.194-0.687     c-0.193-0.715-0.389-1.429-0.607-2.134c-0.112-0.363-0.24-0.719-0.359-1.08c-0.186-0.564-0.37-1.128-0.571-1.684     c-0.143-0.394-0.299-0.781-0.45-1.172c-0.198-0.513-0.394-1.027-0.606-1.533c-0.167-0.401-0.346-0.796-0.522-1.193     c-0.215-0.486-0.43-0.972-0.657-1.451c-0.189-0.398-0.387-0.791-0.584-1.184c-0.234-0.467-0.469-0.933-0.715-1.394     c-0.209-0.391-0.424-0.778-0.641-1.164c-0.253-0.451-0.509-0.899-0.773-1.343c-0.227-0.382-0.459-0.761-0.695-1.138     c-0.273-0.437-0.551-0.87-0.834-1.3c-0.244-0.369-0.49-0.736-0.741-1.1c-0.294-0.426-0.595-0.846-0.9-1.265     c-0.258-0.354-0.516-0.707-0.781-1.055c-0.317-0.416-0.642-0.824-0.969-1.232c-0.27-0.337-0.539-0.674-0.816-1.005     c-0.341-0.407-0.692-0.806-1.044-1.205c-0.279-0.316-0.555-0.635-0.84-0.945c-0.371-0.404-0.754-0.797-1.136-1.191     c-0.281-0.29-0.557-0.584-0.843-0.868c-0.419-0.416-0.852-0.819-1.283-1.223c-0.263-0.247-0.52-0.5-0.788-0.742     c-0.548-0.496-1.11-0.975-1.675-1.451c-0.163-0.137-0.32-0.282-0.484-0.417c-0.734-0.606-1.483-1.194-2.245-1.766     c-0.216-0.162-0.44-0.313-0.659-0.473c-0.553-0.404-1.107-0.806-1.674-1.191c-0.297-0.202-0.603-0.392-0.904-0.589     c-0.5-0.327-1-0.655-1.51-0.969c-0.333-0.204-0.672-0.397-1.009-0.595c-0.491-0.289-0.981-0.577-1.48-0.852     c-0.355-0.196-0.716-0.381-1.074-0.57c-0.493-0.259-0.987-0.517-1.488-0.763c-0.371-0.182-0.747-0.356-1.122-0.531     c-0.5-0.233-1.002-0.463-1.509-0.683c-0.384-0.167-0.772-0.327-1.16-0.486c-0.511-0.209-1.024-0.413-1.541-0.609     c-0.393-0.149-0.787-0.293-1.183-0.433c-0.525-0.186-1.052-0.365-1.583-0.537c-0.398-0.129-0.797-0.256-1.199-0.378     c-0.541-0.163-1.085-0.316-1.632-0.465c-0.4-0.109-0.8-0.218-1.203-0.318c-0.563-0.14-1.129-0.268-1.698-0.393     c-0.396-0.087-0.79-0.177-1.189-0.256c-0.591-0.118-1.188-0.219-1.786-0.32c-0.383-0.064-0.765-0.135-1.15-0.192     c-0.637-0.095-1.28-0.17-1.924-0.245c-0.352-0.041-0.702-0.09-1.056-0.125c-0.737-0.073-1.481-0.123-2.226-0.17     c-0.266-0.017-0.528-0.043-0.795-0.057c-1.021-0.051-2.047-0.079-3.08-0.079c-0.158,0-0.313,0.012-0.47,0.013     c-0.94,0.007-1.876,0.028-2.805,0.077c-0.465,0.024-0.925,0.071-1.387,0.106c-0.616,0.047-1.234,0.088-1.845,0.152     c-0.555,0.058-1.104,0.138-1.655,0.211c-0.501,0.067-1.003,0.128-1.5,0.207c-0.626,0.099-1.245,0.217-1.865,0.334     c-0.4,0.076-0.802,0.149-1.199,0.233c-0.697,0.146-1.388,0.311-2.077,0.48c-0.293,0.073-0.587,0.144-0.879,0.221     c-0.779,0.204-1.55,0.426-2.317,0.659c-0.169,0.052-0.338,0.103-0.506,0.156c-0.877,0.276-1.746,0.57-2.606,0.884     c-0.015,0.005-0.03,0.011-0.045,0.016c-9.849,3.598-18.574,9.628-25.364,17.464v-55.124h50.199c4.143,0,7.5-3.357,7.5-7.5V130.9     h130.811l39.809,83.587c1.244,2.612,3.879,4.275,6.771,4.275h78.845c5.728,0,10.387,4.658,10.387,10.385v15.815     c-0.06,0.022-0.118,0.047-0.178,0.069c-0.307,0.116-0.61,0.238-0.915,0.357c-0.761,0.295-1.516,0.6-2.266,0.915     c-0.212,0.09-0.425,0.178-0.637,0.27c-17.349,7.443-31.559,20.031-41.087,35.583c-0.057,0.093-0.114,0.185-0.17,0.278     c-1.092,1.797-2.123,3.632-3.088,5.504c-0.201,0.389-0.396,0.781-0.592,1.174c-0.242,0.487-0.479,0.976-0.712,1.468     c-0.225,0.474-0.452,0.947-0.67,1.425c-0.083,0.184-0.161,0.371-0.243,0.556c-0.532,1.193-1.037,2.4-1.518,3.619     c-0.101,0.256-0.203,0.512-0.301,0.77c-0.254,0.662-0.502,1.326-0.74,1.995c-0.041,0.116-0.08,0.233-0.121,0.349     c-0.247,0.702-0.501,1.402-0.731,2.112h-11.984C285.532,301.405,275.423,311.514,275.423,323.94z M395.281,403.651     c-31.442,0-58.389-19.541-69.383-47.107h10.895c10.369,21.908,32.684,37.103,58.488,37.103s48.118-15.195,58.487-37.103h10.895     C453.67,384.11,426.723,403.651,395.281,403.651z M353.984,356.544h82.594c-8.92,13.316-24.1,22.103-41.297,22.103     C378.084,378.647,362.904,369.86,353.984,356.544z M497,339.038L497,339.038c0,1.382-1.124,2.506-2.506,2.506H290.423V323.94     c0-4.155,3.38-7.535,7.535-7.535h196.536c1.382,0,2.506,1.124,2.506,2.506V339.038z"/>
		</g>
	</g>
</g>
<g>
</g>
<g>
</g>
<g>
</g>
<g>
</g>
<g>
</g>
<g>
</g>
<g>
</g>
<g>
</g>
<g>
</g>
<g>
</g>
<g>
</g>
<g>
</g>
<g>
</g>
<g>
</g>
<g>
</g>
</svg>
