<?xml version="1.0" encoding="iso-8859-1"?>
<!-- Generator: Adobe Illustrator 19.0.0, SVG Export Plug-In . SVG Version: 6.00 Build 0)  -->
<svg xmlns="http://www.w3.org/2000/svg" xmlns:xlink="http://www.w3.org/1999/xlink" version="1.1" id="Layer_1" x="0px" y="0px" viewBox="0 0 512 512" style="enable-background:new 0 0 512 512;" xml:space="preserve">
<g>
	<g>
		<g>
			<path d="M366.873,257.471c-4.142,0-7.5,3.357-7.5,7.5v10.234c0,4.142,3.358,7.5,7.5,7.5s7.5-3.357,7.5-7.5v-10.234     C374.373,260.828,371.015,257.471,366.873,257.471z"/>
			<path d="M102.619,196.19c-3.706-1.852-8.21-0.353-10.063,3.354L65.513,253.61c-1.853,3.704-0.352,8.209,3.353,10.062     c1.077,0.538,2.222,0.794,3.349,0.794c2.75,0,5.399-1.52,6.713-4.147l27.043-54.065     C107.825,202.548,106.324,198.043,102.619,196.19z"/>
			<path d="M104.08,292.521c1.077,0.538,2.222,0.794,3.349,0.794c2.75,0,5.399-1.52,6.714-4.147l41.47-82.913     c1.853-3.705,0.352-8.21-3.353-10.063c-3.705-1.852-8.21-0.353-10.063,3.354l-41.47,82.913     C98.874,286.163,100.375,290.667,104.08,292.521z"/>
			<path d="M153.72,292.521c1.077,0.538,2.222,0.794,3.349,0.794c2.75,0,5.399-1.52,6.714-4.147l41.47-82.913     c1.853-3.705,0.352-8.21-3.353-10.063c-3.706-1.852-8.21-0.353-10.063,3.354l-41.47,82.913     C148.515,286.163,150.016,290.667,153.72,292.521z"/>
			<path d="M203.363,292.521c1.077,0.538,2.222,0.794,3.349,0.794c2.75,0,5.399-1.52,6.714-4.147l41.47-82.914     c1.853-3.704,0.352-8.209-3.353-10.063c-3.705-1.852-8.21-0.353-10.063,3.354l-41.47,82.914     C198.156,286.163,199.658,290.667,203.363,292.521z"/>
			<path d="M253.003,292.521c1.077,0.538,2.222,0.794,3.349,0.794c2.75,0,5.399-1.52,6.714-4.147l41.47-82.914     c1.853-3.704,0.352-8.209-3.353-10.063c-3.706-1.852-8.21-0.353-10.063,3.354l-41.47,82.914     C247.798,286.163,249.299,290.667,253.003,292.521z"/>
			<path d="M15.316,221.535c-0.359-0.447-0.428-1.071-0.178-1.588l20.695-42.73c0.249-0.514,0.779-0.846,1.35-0.846h229.525     c5.364,0,10.092-3.424,11.766-8.52l18.669-56.82h39.041c4.142,0,7.5-3.357,7.5-7.5c0-4.143-3.358-7.5-7.5-7.5H296.61     c-6.177,0-11.623,3.942-13.55,9.811l-18.244,55.529H37.181c-6.283,0-12.111,3.653-14.85,9.308l-20.695,42.73     c-2.757,5.693-1.984,12.563,1.968,17.5l27.369,34.197c1.481,1.851,3.661,2.813,5.86,2.813c1.644,0,3.298-0.537,4.682-1.645     c3.234-2.588,3.757-7.308,1.169-10.542L15.316,221.535z"/>
			<path d="M410.798,329.131c-15.788,0-28.632,12.844-28.632,28.631c0,15.786,12.844,28.63,28.632,28.63s28.632-12.843,28.632-28.63     C439.43,341.975,426.586,329.131,410.798,329.131z M410.798,371.391c-7.516,0-13.631-6.114-13.631-13.629     c0-7.516,6.115-13.63,13.631-13.63s13.631,6.114,13.631,13.63C424.43,365.276,418.314,371.391,410.798,371.391z"/>
			<path d="M137.396,329.131c-15.788,0-28.632,12.844-28.632,28.631c0,15.786,12.844,28.63,28.632,28.63     c15.787,0,28.632-12.843,28.632-28.63C166.028,341.975,153.183,329.131,137.396,329.131z M137.396,371.391     c-7.516,0-13.631-6.114-13.631-13.629c0-7.516,6.115-13.63,13.631-13.63s13.631,6.114,13.631,13.63     C151.027,365.276,144.912,371.391,137.396,371.391z"/>
			<path d="M433.233,179.448c-1.778-2.759-4.8-4.406-8.083-4.406h-55.03c-5.303,0-9.617,4.314-9.617,9.617v57.579     c-0.001,5.303,4.314,9.617,9.617,9.617h92.156c5.303,0,9.618-4.314,9.618-9.617c0-1.854-0.532-3.658-1.535-5.212L433.233,179.448     z M375.502,236.855v-46.814h46.713l30.185,46.814H375.502z"/>
			<path d="M496.856,323.85v-83.998c0-5.099-1.46-10.06-4.225-14.348L451.82,162.21c-4.897-7.596-13.216-12.13-22.255-12.13h-79.026     v-9.806h38.399c12.431,0,22.545-10.113,22.545-22.545c0-11.965-9.734-21.7-21.7-21.7H366.56c-4.142,0-7.5,3.357-7.5,7.5     c0,4.143,3.358,7.5,7.5,7.5h23.225c3.694,0,6.699,3.005,6.699,6.699c0,4.16-3.384,7.544-7.544,7.544h-41.015     c-6.829,0-12.385,5.556-12.385,12.385v19.922V323.63H184.508c-10.59-14.575-27.758-24.078-47.112-24.078     c-17.419,0-33.065,7.7-43.742,19.864l-32.912-41.122c-2.588-3.233-7.307-3.758-10.542-1.169     c-3.234,2.588-3.757,7.308-1.169,10.542l28.783,35.963h-0.64c-11.908,0-21.597,9.688-21.597,21.598     c0,11.516,9.369,20.885,20.886,20.885h3.328c4.064,28.153,28.343,49.857,57.605,49.857s53.541-21.705,57.604-49.857h158.192     c4.064,28.153,28.343,49.857,57.605,49.857c29.263,0,53.541-21.705,57.604-49.857H494.2c9.814,0,17.799-7.984,17.799-17.799     v-6.884C512,332.52,505.412,325.14,496.856,323.85z M79.573,351.112h-3.11c-3.245,0-5.885-2.64-5.885-5.885     c0-3.638,2.959-6.597,6.596-6.597h5.254C81.037,342.613,80.067,346.79,79.573,351.112z M137.396,400.969     c-23.828,0-43.213-19.383-43.213-43.208c0-23.826,19.385-43.209,43.213-43.209c23.828,0,43.212,19.383,43.212,43.209     C180.608,381.586,161.223,400.969,137.396,400.969z M352.975,351.112H195.217c-0.494-4.321-1.464-8.498-2.855-12.482h163.468     C354.44,342.613,353.469,346.79,352.975,351.112z M410.798,400.969c-23.828,0-43.213-19.383-43.213-43.208     c0-23.826,19.385-43.209,43.213-43.209c23.828,0,43.212,19.383,43.212,43.209C454.011,381.586,434.626,400.969,410.798,400.969z      M410.798,299.552c-19.354,0-36.523,9.502-47.113,24.078h-13.145V165.08h79.026c3.918,0,7.524,1.966,9.647,5.259l40.811,63.293     c1.198,1.859,1.832,4.01,1.832,6.22v83.777H457.91C447.32,309.054,430.152,299.552,410.798,299.552z M494.201,351.112H468.62     c-0.494-4.321-1.464-8.498-2.855-12.482h23.591h4.844c1.543,0,2.799,1.256,2.799,2.799v6.884H497     C497,349.856,495.744,351.112,494.201,351.112z"/>
		</g>
	</g>
</g>
<g>
</g>
<g>
</g>
<g>
</g>
<g>
</g>
<g>
</g>
<g>
</g>
<g>
</g>
<g>
</g>
<g>
</g>
<g>
</g>
<g>
</g>
<g>
</g>
<g>
</g>
<g>
</g>
<g>
</g>
</svg>
