<?xml version="1.0" encoding="iso-8859-1"?>
<!-- Generator: Adobe Illustrator 19.0.0, SVG Export Plug-In . SVG Version: 6.00 Build 0)  -->
<svg xmlns="http://www.w3.org/2000/svg" xmlns:xlink="http://www.w3.org/1999/xlink" version="1.1" id="Layer_1" x="0px" y="0px" viewBox="0 0 512 512" style="enable-background:new 0 0 512 512;" xml:space="preserve">
<g>
	<g>
		<g>
			<path d="M75.528,387.909c-15.964,0-28.952,13.002-28.952,28.983c0,15.981,12.988,28.982,28.952,28.982     s28.951-13.001,28.951-28.982C104.479,400.911,91.492,387.909,75.528,387.909z M75.528,430.875     c-7.693,0-13.952-6.272-13.952-13.982c0-7.711,6.259-13.983,13.952-13.983c7.692,0,13.951,6.272,13.951,13.983     C89.479,424.602,83.221,430.875,75.528,430.875z"/>
			<path d="M399.879,445.875c15.964,0,28.952-13.001,28.952-28.982c0-15.981-12.988-28.983-28.952-28.983     s-28.951,13.002-28.951,28.983C370.928,432.874,383.915,445.875,399.879,445.875z M399.879,402.909     c7.693,0,13.952,6.272,13.952,13.983c0,7.71-6.259,13.982-13.952,13.982c-7.692,0-13.951-6.272-13.951-13.982     C385.928,409.181,392.187,402.909,399.879,402.909z"/>
			<path d="M109.434,399.069c-1.413,1.919-1.831,4.395-1.125,6.671c1.114,3.595,1.68,7.347,1.68,11.152s-0.565,7.557-1.68,11.151     c-0.706,2.276-0.288,4.752,1.125,6.671c1.414,1.918,3.655,3.051,6.038,3.051h244.464c2.383,0,4.624-1.133,6.038-3.051     c1.413-1.919,1.831-4.395,1.125-6.671c-1.115-3.597-1.681-7.349-1.681-11.151c0-3.804,0.565-7.556,1.681-11.152     c0.706-2.276,0.288-4.752-1.125-6.671c-1.414-1.918-3.655-3.051-6.038-3.051H115.472     C113.089,396.018,110.848,397.151,109.434,399.069z M124.663,411.018h226.08c-0.216,1.944-0.325,3.905-0.325,5.874     s0.108,3.929,0.325,5.873h-226.08c0.217-1.943,0.325-3.903,0.325-5.873S124.88,412.963,124.663,411.018z"/>
			<path d="M205.7,283.166c-4.143,0-7.5,3.357-7.5,7.5s3.357,7.5,7.5,7.5h17.922c4.143,0,7.5-3.357,7.5-7.5s-3.357-7.5-7.5-7.5     H205.7z"/>
			<path d="M43.626,310.271c2.777,0,5.447-1.55,6.746-4.214l18.182-37.268c1.816-3.723,0.271-8.213-3.452-10.028     c-3.723-1.815-8.213-0.27-10.028,3.452l-18.182,37.268c-1.816,3.723-0.271,8.213,3.452,10.028     C41.402,310.026,42.522,310.271,43.626,310.271z"/>
			<path d="M80.048,310.271c2.777,0,5.446-1.55,6.746-4.213l18.183-37.268c1.816-3.723,0.271-8.213-3.451-10.029     c-3.725-1.815-8.213-0.27-10.029,3.451L73.314,299.48c-1.816,3.723-0.271,8.213,3.451,10.029     C77.824,310.026,78.944,310.271,80.048,310.271z"/>
			<path d="M116.471,310.271c2.777,0,5.446-1.55,6.746-4.213L141.4,268.79c1.816-3.723,0.271-8.213-3.451-10.029     c-3.726-1.815-8.213-0.27-10.029,3.451l-18.183,37.268c-1.816,3.723-0.271,8.213,3.451,10.029     C114.247,310.026,115.367,310.271,116.471,310.271z"/>
			<path d="M312.839,262.766v-26.627c0-1.468-0.341-2.941-0.983-4.256l-17.799-36.509c-1.616-3.313-5.04-5.452-8.724-5.452h-78.661     c-5.352,0-9.706,4.355-9.706,9.709v36.267c0,2.577,1.051,5.094,2.882,6.903l27.154,26.858c1.829,1.815,4.256,2.815,6.834,2.815     h69.297v0.001C308.485,272.475,312.839,268.12,312.839,262.766z M297.839,257.474h-61.825l-24.048-23.785v-28.767h70.058     l15.815,32.439V257.474z"/>
			<path d="M500.57,215.682l-29.057-69.484c-1.598-3.822-5.992-5.623-9.813-4.025s-5.624,5.991-4.025,9.813l26.618,63.652h-13.552     L397.458,74.793c-0.008-0.016-0.014-0.033-0.022-0.049c-0.218-0.423-0.41-0.854-0.579-1.29c-0.056-0.145-0.098-0.294-0.149-0.44     c-0.11-0.318-0.216-0.637-0.3-0.961c-0.04-0.153-0.07-0.307-0.104-0.461c-0.074-0.336-0.14-0.674-0.187-1.015     c-0.018-0.131-0.032-0.263-0.046-0.395c-0.04-0.379-0.064-0.761-0.07-1.146c-0.025-1.565,0.222-3.141,0.781-4.669     c1.26-3.451,3.822-6.12,7.214-7.518c6.538-2.692,14.074,0.433,16.806,6.964l25.23,60.332c1.598,3.821,5.993,5.624,9.813,4.025     c3.821-1.598,5.624-5.991,4.025-9.813l-25.23-60.332c-5.905-14.121-22.217-20.872-36.355-15.046     c-7.226,2.975-12.909,8.895-15.592,16.24c-0.528,1.445-0.927,2.923-1.207,4.417l-117.256,48.29     c-2.005-0.287-4.051-0.444-6.133-0.444h-31.172c-10.897,0-19.764,8.874-19.764,19.782v33.318h-20.877     c-9.709,0-17.607,7.905-17.607,17.622v43.78c0,1.446-1.17,2.622-2.607,2.622H17.607C7.898,228.608,0,236.513,0,246.231v18.522     c0,4.143,3.357,7.5,7.5,7.5s7.5-3.357,7.5-7.5v-18.522c0-1.446,1.17-2.623,2.607-2.623h148.462     c9.709,0,17.607-7.905,17.607-17.622v-43.78c0-1.446,1.17-2.622,2.607-2.622h28.377h79.069h4.116c1.91,0,3.687,1.112,4.526,2.835     l23.419,48.032c0.335,0.688,0.513,1.458,0.513,2.225v92.681c0,2.788-2.261,5.057-5.039,5.057h-15.587H160.895H17.607     c-1.438,0-2.607-1.177-2.607-2.622v-32.786c0-4.143-3.357-7.5-7.5-7.5s-7.5,3.357-7.5,7.5v32.786     c0,9.717,7.898,17.622,17.607,17.622h135.787v17.258H68.31c-29.879,0-54.187,24.309-54.187,54.255     c0,29.879,24.308,54.188,54.187,54.188h338.788c29.879,0,54.187-24.309,54.187-54.255c0-29.879-24.308-54.188-54.187-54.188     h-93.919v-17.258h8.087c11.05,0,20.039-8.997,20.039-20.057v-92.681c0-3.03-0.701-6.071-2.029-8.797l-23.42-48.034     c-2.833-5.811-8.364-9.864-14.625-10.955v-4.419l96.953-51.784l56.823,109.209c-3.154,2.229-5.224,5.897-5.224,10.045v32.761     c0,5.779,4.011,10.628,9.393,11.94l2.957,30.28c0.529,5.411,4.898,9.492,10.164,9.492h0.869v57.759c0,4.143,3.357,7.5,7.5,7.5     s7.5-3.357,7.5-7.5v-57.759h0.869c5.265,0,9.634-4.081,10.163-9.492l2.947-30.164c5.615-1.138,9.855-6.11,9.855-12.056v-32.763     C512,221.45,506.946,216.132,500.57,215.682z M168.395,345.413h129.784v17.258H168.395V345.413z M407.098,377.67     c21.607,0.001,39.186,17.58,39.186,39.255c0,21.608-17.579,39.188-39.187,39.188H68.31c-21.607,0-39.187-17.579-39.187-39.255     c0-21.608,17.579-39.188,39.187-39.188h92.585h144.784H407.098z M286.231,155.973v8.61h-64.07v-33.317     c0-2.637,2.137-4.782,4.764-4.782h31.172c1.909,0,3.774,0.193,5.578,0.558c0.715,0.144,1.415,0.323,2.107,0.519     c0.148,0.042,0.297,0.082,0.444,0.127c0.632,0.191,1.251,0.406,1.862,0.638c0.195,0.075,0.389,0.152,0.583,0.23     c0.576,0.234,1.143,0.484,1.699,0.755c0.203,0.099,0.401,0.205,0.6,0.309c0.464,0.24,0.919,0.491,1.367,0.755     c0.237,0.14,0.471,0.283,0.703,0.429c0.435,0.274,0.861,0.561,1.279,0.858c0.178,0.126,0.359,0.25,0.534,0.38     c0.492,0.367,0.969,0.752,1.435,1.15c0.154,0.131,0.307,0.263,0.458,0.397c0.48,0.428,0.948,0.869,1.397,1.328     c0.098,0.1,0.192,0.202,0.289,0.303c0.488,0.513,0.964,1.038,1.412,1.587c0.001,0.001,0.002,0.002,0.003,0.003     c0.497,0.608,0.969,1.238,1.414,1.885c0.005,0.007,0.01,0.014,0.014,0.02c0.441,0.643,0.855,1.305,1.243,1.983     c0.01,0.018,0.02,0.035,0.03,0.053c1.546,2.721,2.648,5.714,3.223,8.87c0.014,0.079,0.029,0.158,0.042,0.237     c0.127,0.73,0.226,1.469,0.294,2.215c0.009,0.098,0.014,0.196,0.022,0.294c0.062,0.761,0.102,1.527,0.102,2.301V155.973z      M299.933,144.159c-1.509-6.018-4.286-11.532-8.023-16.255c-0.069-0.087-0.135-0.175-0.205-0.261     c-0.287-0.357-0.581-0.708-0.879-1.056c-0.14-0.164-0.281-0.327-0.423-0.489c-0.258-0.292-0.52-0.581-0.786-0.866     c-0.202-0.217-0.406-0.43-0.612-0.643c-0.228-0.235-0.456-0.469-0.689-0.698c-0.275-0.271-0.556-0.536-0.839-0.801     c-0.18-0.168-0.357-0.338-0.54-0.503c-0.406-0.367-0.822-0.726-1.242-1.078c-0.071-0.059-0.138-0.12-0.209-0.179     c-0.527-0.435-1.062-0.862-1.609-1.272l99.135-40.827c0.098,0.245,0.208,0.484,0.313,0.726c0.071,0.164,0.138,0.33,0.212,0.494     c0.195,0.426,0.4,0.849,0.617,1.265l7.106,13.663L299.933,144.159z M484.664,297.412h-7.997l-2.384-24.41h12.766L484.664,297.412     z M497,258.001h-1.683h-29.303h-1.231v-27.364h1.406h29.37H497V258.001z"/>
		</g>
	</g>
</g>
<g>
</g>
<g>
</g>
<g>
</g>
<g>
</g>
<g>
</g>
<g>
</g>
<g>
</g>
<g>
</g>
<g>
</g>
<g>
</g>
<g>
</g>
<g>
</g>
<g>
</g>
<g>
</g>
<g>
</g>
</svg>
