<?xml version="1.0" encoding="iso-8859-1"?>
<!-- Generator: Adobe Illustrator 19.0.0, SVG Export Plug-In . SVG Version: 6.00 Build 0)  -->
<svg xmlns="http://www.w3.org/2000/svg" xmlns:xlink="http://www.w3.org/1999/xlink" version="1.1" id="Layer_1" x="0px" y="0px" viewBox="0 0 512.001 512.001" style="enable-background:new 0 0 512.001 512.001;" xml:space="preserve">
<g>
	<g>
		<g>
			<path d="M42.751,456.5c0,16.305,13.223,29.571,29.476,29.571s29.477-13.266,29.477-29.571s-13.224-29.571-29.477-29.571     S42.751,440.195,42.751,456.5z M72.227,441.931c7.981,0,14.476,6.536,14.476,14.57s-6.494,14.57-14.476,14.57     s-14.475-6.536-14.475-14.57S64.246,441.931,72.227,441.931z"/>
			<path d="M404.498,486.072c16.253,0,29.476-13.266,29.476-29.571s-13.223-29.571-29.476-29.571s-29.477,13.266-29.477,29.571     S388.245,486.072,404.498,486.072z M404.498,441.93c7.981,0,14.475,6.536,14.475,14.57s-6.493,14.57-14.475,14.57     s-14.476-6.536-14.476-14.57S396.516,441.93,404.498,441.93z"/>
			<path d="M107.712,456.5c0,3.931-0.583,7.808-1.731,11.522c-0.704,2.276-0.285,4.751,1.129,6.668     c1.414,1.917,3.654,3.049,6.036,3.049h250.433c2.382,0,4.623-1.132,6.036-3.049c1.414-1.917,1.833-4.392,1.129-6.668     c-1.149-3.714-1.731-7.59-1.731-11.522c0-3.931,0.583-7.809,1.731-11.522c0.704-2.275,0.285-4.751-1.128-6.668     c-1.414-1.917-3.654-3.049-6.037-3.049H113.146c-2.383,0-4.623,1.132-6.037,3.049c-1.414,1.917-1.833,4.393-1.128,6.668     C107.13,448.692,107.712,452.569,107.712,456.5z M122.355,450.262H354.37c-0.238,2.063-0.358,4.146-0.358,6.238     s0.12,4.175,0.358,6.238H122.355c0.238-2.063,0.358-4.146,0.358-6.238S122.593,452.326,122.355,450.262z"/>
			<path d="M220.045,319.323c-4.142,0-7.5,3.357-7.5,7.5c0,4.143,3.358,7.5,7.5,7.5h18.36c4.142,0,7.5-3.357,7.5-7.5     c0-4.143-3.358-7.5-7.5-7.5H220.045z"/>
			<path d="M54.014,346.759c2.78,0,5.452-1.553,6.75-4.221l18.626-38.286c1.812-3.725,0.262-8.214-3.463-10.026     c-3.726-1.814-8.213-0.263-10.026,3.463l-18.626,38.286c-1.812,3.725-0.262,8.214,3.463,10.026     C51.795,346.516,52.913,346.759,54.014,346.759z"/>
			<path d="M91.326,346.759c2.78,0,5.452-1.553,6.75-4.221l18.626-38.286c1.812-3.725,0.262-8.214-3.463-10.026     c-3.727-1.814-8.214-0.263-10.026,3.463l-18.626,38.286c-1.812,3.725-0.262,8.214,3.463,10.026     C89.107,346.516,90.225,346.759,91.326,346.759z"/>
			<path d="M128.637,346.759c2.78,0,5.452-1.553,6.75-4.221l18.626-38.286c1.812-3.725,0.262-8.214-3.463-10.026     c-3.727-1.814-8.214-0.263-10.026,3.463l-18.626,38.286c-1.812,3.725-0.262,8.214,3.463,10.026     C126.419,346.516,127.536,346.759,128.637,346.759z"/>
			<path d="M499.697,159.872c-2.057-2.534-4.973-4.129-8.162-4.517l-74.82-70.643c-3.012-2.844-7.76-2.708-10.603,0.305     c-2.844,3.012-2.708,7.758,0.304,10.603l63.164,59.638h-25.346L325.762,58.937c-0.001-0.001-0.003-0.002-0.004-0.003     l-20.647-16.787c-0.473-0.401-0.91-0.829-1.325-1.274c-0.12-0.129-0.229-0.265-0.345-0.397c-0.296-0.339-0.579-0.688-0.842-1.051     c-0.098-0.135-0.193-0.271-0.286-0.409c-0.294-0.436-0.57-0.884-0.818-1.35c-0.031-0.058-0.066-0.115-0.097-0.174     c-0.293-0.569-0.555-1.158-0.779-1.77c-0.015-0.04-0.035-0.077-0.051-0.116c-0.515-1.444-0.821-2.976-0.889-4.566     c-0.189-4.381,1.408-8.496,4.497-11.588c5.931-5.935,15.593-5.948,21.54-0.029c0.046,0.046,0.094,0.092,0.142,0.137     l58.668,55.392c3.011,2.843,7.759,2.706,10.603-0.305c2.844-3.012,2.708-7.758-0.304-10.603l-58.603-55.33     c-11.804-11.667-30.916-11.616-42.655,0.133c-6.007,6.01-9.242,14.336-8.874,22.84c0.055,1.268,0.199,2.524,0.409,3.763     L66.4,208.926c-10.979,0.1-19.881,9.077-19.881,20.108v34.239H27.36c-9.846,0-17.855,8.029-17.855,17.9v23.648     c0,4.143,3.358,7.5,7.5,7.5s7.5-3.357,7.5-7.5v-23.648c0-1.599,1.28-2.899,2.854-2.899h152.087     c9.846,0,17.855-8.029,17.855-17.899v-44.977c0-1.599,1.28-2.898,2.854-2.898H313.4c2.655,0,5.127,1.555,6.296,3.96     l23.365,48.059c0.468,0.964,0.716,2.041,0.716,3.115v93.152c0,3.901-3.146,7.076-7.013,7.076H27.36     c-1.574,0-2.854-1.301-2.854-2.899v-29.64c0-4.143-3.358-7.5-7.5-7.5s-7.5,3.357-7.5,7.5v29.64c0,9.87,8.009,17.9,17.855,17.9     h129.343v18.139H64.901c-30.546,0-55.396,24.85-55.396,55.396v0.207c0,30.546,24.85,55.396,55.396,55.396h346.923     c30.546,0,55.396-24.85,55.396-55.396v-0.207c0-30.546-24.85-55.396-55.396-55.396h-91.802v-18.139h16.742     c12.139,0,22.014-9.904,22.014-22.077v-93.152c0-3.334-0.77-6.679-2.226-9.674l-23.365-48.06     c-3.663-7.533-11.43-12.402-19.788-12.402H200.155c-9.844,0-17.855,8.029-17.855,17.899v44.977c0,1.599-1.28,2.898-2.854,2.898     h-36.927v-10.196c0-5.154-0.893-10.101-2.517-14.703L321.283,74.629l107.736,87.592c-1.232,2.488-1.605,5.331-1.02,8.114     l8.292,39.429c1.209,5.75,6.345,9.924,12.212,9.924h9.109v85.354c0,4.143,3.358,7.5,7.5,7.5c7.221,0,13.097,5.915,13.097,13.187     c0,7.271-5.875,13.188-13.097,13.188c-7.222,0-13.098-5.915-13.098-13.188c0-4.143-3.358-7.5-7.5-7.5s-7.5,3.357-7.5,7.5     c0,15.543,12.605,28.189,28.098,28.189c15.493,0,28.098-12.646,28.098-28.189c0-12.937-8.735-23.858-20.597-27.159v-78.88h9.108     c5.866,0,11.003-4.173,12.212-9.924l8.292-39.429C503.005,166.627,502.083,162.813,499.697,159.872z M171.703,382.863h133.319     v18.139h-0.001H171.703V382.863z M411.824,416.002c22.274,0.001,40.395,18.122,40.395,40.395v0.207     c0,22.273-18.121,40.395-40.395,40.395H64.901c-22.274,0-40.395-18.121-40.395-40.395v-0.207     c0-22.273,18.121-40.395,40.395-40.395H411.824z M127.518,263.273H61.519v-34.239c0-2.821,2.271-5.116,5.063-5.116h2.861h29.072     c0.61,0,1.216,0.026,1.818,0.063c0.182,0.011,0.362,0.027,0.543,0.042c0.44,0.036,0.878,0.082,1.313,0.137     c0.183,0.023,0.367,0.043,0.55,0.07c0.555,0.081,1.105,0.177,1.651,0.29c0.222,0.046,0.439,0.102,0.659,0.153     c0.328,0.076,0.655,0.156,0.98,0.243c0.296,0.08,0.591,0.164,0.883,0.253c0.214,0.065,0.425,0.136,0.637,0.205     c1.207,0.399,2.382,0.869,3.513,1.417c0.009,0.004,0.018,0.009,0.027,0.013c4.118,2,7.693,4.955,10.451,8.571     c0.118,0.156,0.237,0.312,0.353,0.47c0.187,0.256,0.371,0.515,0.55,0.777c0.264,0.389,0.522,0.783,0.768,1.186     c0.086,0.141,0.17,0.283,0.254,0.426c0.26,0.442,0.51,0.892,0.749,1.351c2.105,4.037,3.303,8.625,3.303,13.492V263.273z      M132.463,224.969c-5.444-6.647-12.673-11.496-20.793-14.036c-0.05-0.016-0.1-0.032-0.15-0.047     c-0.588-0.182-1.181-0.351-1.778-0.508c-0.179-0.047-0.359-0.093-0.539-0.138c-0.511-0.127-1.023-0.248-1.54-0.358     c-0.28-0.06-0.562-0.113-0.844-0.167c-0.445-0.085-0.89-0.169-1.339-0.241c-0.371-0.059-0.746-0.107-1.121-0.157     c-0.38-0.05-0.759-0.105-1.142-0.146c-0.479-0.051-0.963-0.086-1.446-0.121c-0.294-0.022-0.585-0.052-0.88-0.067     c-0.787-0.042-1.578-0.066-2.375-0.066H90.55L291.462,49.553c0.062,0.076,0.133,0.144,0.195,0.219     c0.526,0.637,1.074,1.257,1.653,1.852c0.073,0.075,0.15,0.146,0.223,0.22c0.624,0.628,1.271,1.235,1.953,1.809     c0.004,0.003,0.007,0.007,0.011,0.01c0.032,0.026,0.064,0.053,0.096,0.079l13.913,11.311L132.463,224.969z M479.672,204.687     h-29.121l-7.24-34.429h43.6L479.672,204.687z"/>
			<path d="M319.856,307.93c5.381,0,9.76-4.383,9.76-9.771v-27.355c0-1.476-0.341-2.956-0.984-4.274L310.4,229.026     c-1.622-3.339-5.067-5.497-8.778-5.497H221.04c-5.381,0-9.76,4.383-9.76,9.771v37.258c0,2.586,1.052,5.113,2.89,6.938     l27.827,27.603c1.84,1.826,4.28,2.831,6.87,2.831H319.856z M226.281,268.38v-29.851h72.06l16.275,33.478v20.922h-63.586     L226.281,268.38z"/>
		</g>
	</g>
</g>
<g>
</g>
<g>
</g>
<g>
</g>
<g>
</g>
<g>
</g>
<g>
</g>
<g>
</g>
<g>
</g>
<g>
</g>
<g>
</g>
<g>
</g>
<g>
</g>
<g>
</g>
<g>
</g>
<g>
</g>
</svg>
