<?xml version="1.0" encoding="iso-8859-1"?>
<!-- Generator: Adobe Illustrator 19.0.0, SVG Export Plug-In . SVG Version: 6.00 Build 0)  -->
<svg xmlns="http://www.w3.org/2000/svg" xmlns:xlink="http://www.w3.org/1999/xlink" version="1.1" id="Layer_1" x="0px" y="0px" viewBox="0 0 512 512" style="enable-background:new 0 0 512 512;" xml:space="preserve">
<g>
	<g>
		<g>
			<path d="M61.133,336.913c-14.289,0-25.914,11.634-25.914,25.934c0,14.3,11.625,25.935,25.914,25.935     c14.288,0,25.914-11.634,25.914-25.935C87.047,348.547,75.422,336.913,61.133,336.913z M61.133,373.781     c-6.018,0-10.913-4.905-10.913-10.934c0-6.029,4.896-10.933,10.913-10.933c6.017,0,10.913,4.904,10.913,10.933     C72.047,368.876,67.15,373.781,61.133,373.781z"/>
			<path d="M164.791,336.913c-14.289,0-25.914,11.634-25.914,25.934c0,14.3,11.625,25.935,25.914,25.935     c14.288,0,25.914-11.634,25.914-25.935C190.704,348.547,179.079,336.913,164.791,336.913z M164.791,373.781     c-6.018,0-10.913-4.905-10.913-10.934c0-6.029,4.896-10.933,10.913-10.933c6.017,0,10.913,4.904,10.913,10.933     C175.704,368.876,170.808,373.781,164.791,373.781z"/>
			<path d="M268.448,336.913c-14.288,0-25.914,11.634-25.914,25.934c0,14.3,11.625,25.935,25.914,25.935     c14.289,0,25.914-11.634,25.914-25.935C294.361,348.547,282.736,336.913,268.448,336.913z M268.448,373.781     c-6.017,0-10.913-4.905-10.913-10.934c0-6.029,4.896-10.933,10.913-10.933c6.018,0,10.913,4.904,10.913,10.933     C279.361,368.876,274.465,373.781,268.448,373.781z"/>
			<path d="M372.105,336.913c-14.289,0-25.914,11.634-25.914,25.934c0,14.3,11.625,25.935,25.914,25.935     c14.288,0,25.914-11.634,25.914-25.935C398.019,348.547,386.393,336.913,372.105,336.913z M372.105,373.781     c-6.018,0-10.913-4.905-10.913-10.934c0-6.029,4.896-10.933,10.913-10.933c6.017,0,10.913,4.904,10.913,10.933     C383.018,368.876,378.122,373.781,372.105,373.781z"/>
			<path d="M120.989,355.347h-17.139c-4.142,0-7.5,3.357-7.5,7.5c0,4.143,3.358,7.5,7.5,7.5h17.139c4.142,0,7.5-3.357,7.5-7.5     C128.489,358.704,125.131,355.347,120.989,355.347z"/>
			<path d="M225.189,355.347h-17.139c-4.142,0-7.5,3.357-7.5,7.5c0,4.143,3.358,7.5,7.5,7.5h17.139c4.142,0,7.5-3.357,7.5-7.5     C232.689,358.704,229.331,355.347,225.189,355.347z"/>
			<path d="M329.388,355.347h-17.139c-4.142,0-7.5,3.357-7.5,7.5c0,4.143,3.358,7.5,7.5,7.5h17.139c4.142,0,7.5-3.357,7.5-7.5     C336.888,358.704,333.53,355.347,329.388,355.347z"/>
			<path d="M290.361,232.54c-3.727-1.809-8.213-0.252-10.021,3.476l-12.79,26.378c-1.807,3.728-0.251,8.214,3.476,10.021     c1.054,0.512,2.169,0.754,3.267,0.754c2.784,0,5.458-1.557,6.754-4.229l12.79-26.378     C295.644,238.833,294.088,234.347,290.361,232.54z"/>
			<path d="M316.024,232.54c-3.727-1.809-8.213-0.252-10.021,3.476l-12.79,26.378c-1.807,3.728-0.251,8.214,3.476,10.021     c1.054,0.512,2.169,0.754,3.267,0.754c2.784,0,5.458-1.557,6.754-4.229l12.79-26.378     C321.307,238.833,319.751,234.347,316.024,232.54z"/>
			<path d="M109.871,258.165H92.476c-4.142,0-7.5,3.357-7.5,7.5c0,4.143,3.358,7.5,7.5,7.5h17.395c4.142,0,7.5-3.357,7.5-7.5     C117.372,261.523,114.013,258.165,109.871,258.165z"/>
			<path d="M211.675,148.92c-2.513-5.282-7.914-8.694-13.759-8.694h-83.448c-8.402,0-15.238,6.84-15.238,15.247v42.974     c0,2.852,0.796,5.639,2.302,8.058l22.904,36.81c2.801,4.501,7.637,7.188,12.936,7.188h96.656c8.402,0,15.238-6.84,15.238-15.247     v-3.871c0-2.254-0.512-4.521-1.479-6.553L211.675,148.92z M234.028,235.501h-96.656c-0.082,0-0.157-0.042-0.201-0.112     l-22.904-36.81c-0.024-0.039-0.037-0.085-0.037-0.133v-42.974c0-0.137,0.107-0.247,0.238-0.247h83.448     c0.092,0,0.174,0.053,0.214,0.138l36.113,75.912c0.016,0.033,0.024,0.07,0.024,0.107v3.872h0     C234.266,235.391,234.159,235.501,234.028,235.501z"/>
			<path d="M509.933,397.028l-17.006-27.511c-2.178-3.523-6.8-4.613-10.323-2.437c-3.523,2.179-4.614,6.801-2.436,10.323     l15.452,24.997l-66.58-15.718c0.204-0.444,0.382-0.897,0.574-1.345c0.079-0.183,0.158-0.366,0.235-0.551     c0.301-0.719,0.586-1.444,0.858-2.174c0.079-0.211,0.155-0.423,0.232-0.635c0.257-0.717,0.503-1.437,0.733-2.163     c0.076-0.239,0.147-0.48,0.219-0.72c0.215-0.711,0.421-1.424,0.609-2.143c0.071-0.272,0.135-0.546,0.202-0.819     c0.172-0.698,0.339-1.398,0.486-2.103c0.065-0.313,0.119-0.63,0.18-0.945c0.129-0.676,0.258-1.352,0.364-2.033     c0.058-0.37,0.1-0.746,0.151-1.118c0.086-0.636,0.177-1.271,0.243-1.912c0.049-0.471,0.077-0.949,0.114-1.423     c0.044-0.552,0.098-1.101,0.126-1.655c0.044-0.853,0.061-1.714,0.069-2.576c0.002-0.178,0.014-0.355,0.014-0.533     c0-0.006,0-0.013,0-0.019c0-0.003,0-0.006,0-0.01c0-0.01-0.001-0.019-0.001-0.029c-0.001-0.922-0.024-1.854-0.072-2.845     c-0.014-0.289-0.038-0.575-0.056-0.863l-0.011-0.149c-0.02-0.311-0.048-0.619-0.071-0.928c-0.088-1.091-0.203-2.173-0.349-3.246     c-0.027-0.212-0.05-0.422-0.081-0.635c0-0.001,0-0.002-0.001-0.004c-0.058-0.396-0.127-0.789-0.193-1.183l-0.003-0.017     c-0.09-0.537-0.183-1.075-0.289-1.615c-0.002-0.01-0.004-0.021-0.007-0.032c-0.072-0.365-0.15-0.727-0.228-1.09     c-0.009-0.043-0.018-0.083-0.027-0.127c-0.113-0.512-0.229-1.023-0.353-1.526c-0.007-0.027-0.014-0.054-0.021-0.081     c-0.087-0.351-0.178-0.701-0.271-1.05c-0.011-0.04-0.02-0.08-0.031-0.121c-0.134-0.496-0.273-0.989-0.418-1.476     c-0.019-0.065-0.041-0.13-0.06-0.195c-0.09-0.297-0.18-0.594-0.274-0.889c-0.018-0.057-0.035-0.115-0.053-0.172     c-0.153-0.476-0.313-0.947-0.479-1.417c-0.043-0.122-0.087-0.24-0.13-0.361c-0.08-0.223-0.158-0.447-0.24-0.668     c-0.026-0.07-0.05-0.142-0.076-0.211c-0.172-0.459-0.354-0.912-0.539-1.372l-0.082-0.202c-0.067-0.166-0.138-0.333-0.206-0.5     c-0.037-0.087-0.071-0.175-0.108-0.262c-0.039-0.092-0.074-0.184-0.114-0.277c-0.159-0.37-0.326-0.734-0.494-1.1l-0.198-0.433     c-0.154-0.339-0.309-0.677-0.467-1c-0.155-0.318-0.316-0.632-0.479-0.944l-0.266-0.518c-0.175-0.343-0.351-0.687-0.526-1.006     c-0.109-0.202-0.224-0.399-0.339-0.597l-0.094-0.163c-0.614-1.086-1.271-2.167-1.955-3.218l-0.08-0.126     c-0.103-0.162-0.206-0.324-0.304-0.471c-0.297-0.443-0.605-0.878-0.915-1.313l-0.26-0.365c-0.13-0.186-0.26-0.37-0.392-0.549     c-0.353-0.479-0.719-0.948-1.081-1.409l-0.127-0.163c-0.152-0.197-0.305-0.393-0.449-0.569c-0.376-0.465-0.762-0.919-1.156-1.378     l-0.097-0.113c-0.164-0.19-0.328-0.382-0.488-0.563c-0.406-0.458-0.821-0.907-1.242-1.354c-0.193-0.205-0.387-0.41-0.582-0.611     c-0.438-0.452-0.884-0.896-1.33-1.328c-0.19-0.184-0.381-0.366-0.561-0.535c-0.477-0.45-0.96-0.895-1.444-1.321l-0.5-0.434     c-0.523-0.453-1.051-0.898-1.606-1.346l-0.361-0.284c-0.59-0.469-1.186-0.928-1.759-1.348l-0.141-0.102     c-2.907-2.121-5.993-3.958-9.211-5.51c-0.027-0.013-0.053-0.026-0.08-0.039c-1.668-0.801-3.371-1.526-5.107-2.168     c-0.25-0.093-0.504-0.178-0.756-0.268c-0.352-0.125-0.701-0.256-1.056-0.375c-0.033-0.012-0.123-0.042-0.156-0.054     c-0.173-0.057-0.355-0.106-0.53-0.162c-0.407-0.131-0.818-0.254-1.229-0.376c-0.224-0.066-0.438-0.139-0.666-0.204l-0.051-0.015     l12.123-51.548l60.949,98.597c2.178,3.522,6.799,4.612,10.323,2.437c3.523-2.179,4.614-6.8,2.436-10.323l-62.516-101.132     c-2.94-4.757-8.408-7.253-13.92-6.351c-5.519,0.898-9.912,4.996-11.192,10.441l-13.089,55.659     c-0.455-0.01-0.906-0.035-1.364-0.035h-3.097v-73.645c0-14.168-11.518-25.696-25.676-25.696h-75.387l-35.389-74.39h22.951     c6.533,0,11.849-5.315,11.849-11.849v-14.24c0-6.533-5.315-11.849-11.849-11.849H130.003c-4.142,0-7.5,3.357-7.5,7.5     c0,4.143,3.358,7.5,7.5,7.5h125.066v7.938h-31.673H78.031h-8.164v-7.938h29.928c4.142,0,7.5-3.357,7.5-7.5     c0-4.143-3.358-7.5-7.5-7.5H66.715c-6.534,0-11.849,5.315-11.849,11.849v14.24c0,6.533,5.315,11.849,11.849,11.849h3.815v109.185     H58.96v-39.157c0-5.627-4.578-10.204-10.205-10.204h-0.027v-17.491c0-6.547-5.327-11.874-11.874-11.874h-7.223     c-4.142,0-7.5,3.357-7.5,7.5c0,4.143,3.358,7.5,7.5,7.5h4.097v14.365h-0.027c-5.627,0-10.205,4.577-10.205,10.204v39.157h-0.603     c-6.063,0-10.997,4.933-10.997,10.996v57.548c0,5.232,3.675,9.614,8.576,10.722C7.941,327.843,0,343.93,0,361.864     c0,32.881,26.751,59.631,59.631,59.631h315.186c18.34,0,34.768-8.329,45.715-21.406l74.534,17.595     c1.059,0.25,2.125,0.371,3.179,0.371c4.359,0,8.518-2.073,11.147-5.724C512.661,407.793,512.874,401.787,509.933,397.028z      M38.496,203.269h5.464v34.281h-5.464V203.269z M26.897,252.63h44.725c7.669,0,13.909-6.239,13.909-13.909V128.446h133.128     l40.489,85.111c1.243,2.613,3.879,4.278,6.773,4.278h80.124c5.886,0,10.675,4.798,10.675,10.695v73.645H26.897V252.63z      M419.444,361.949c-0.001,0.65-0.02,1.296-0.049,1.94c-0.011,0.237-0.026,0.473-0.04,0.709c-0.028,0.457-0.063,0.912-0.104,1.365     c-0.022,0.243-0.043,0.486-0.069,0.728c-0.063,0.584-0.137,1.166-0.222,1.743c-0.022,0.15-0.045,0.3-0.069,0.45     c-0.092,0.578-0.195,1.152-0.308,1.722c-0.044,0.223-0.094,0.444-0.141,0.667c-0.098,0.454-0.202,0.907-0.314,1.356     c-0.052,0.209-0.103,0.419-0.158,0.627c-0.15,0.567-0.309,1.129-0.48,1.686c-0.022,0.073-0.042,0.146-0.064,0.219     c-0.202,0.646-0.42,1.285-0.65,1.917c-0.05,0.136-0.103,0.271-0.154,0.407c-0.187,0.5-0.383,0.996-0.588,1.488     c-0.067,0.162-0.136,0.324-0.205,0.485c-0.217,0.504-0.443,1.002-0.677,1.496c-0.053,0.111-0.103,0.224-0.157,0.335     c-0.3,0.618-0.611,1.228-0.938,1.83c-0.006,0.01-0.012,0.021-0.017,0.031c-0.312,0.573-0.639,1.136-0.975,1.693     c-0.081,0.134-0.165,0.267-0.247,0.4c-0.279,0.451-0.565,0.898-0.859,1.338c-0.085,0.127-0.169,0.254-0.255,0.381     c-8.043,11.779-21.575,19.532-36.887,19.532H59.631c-24.61,0-44.631-20.021-44.631-44.689c0-24.609,20.021-44.631,44.631-44.631     h315.186c2.15,0,4.262,0.162,6.332,0.457c0.271,0.038,0.542,0.078,0.805,0.121c0.486,0.078,0.969,0.166,1.45,0.26     c0.245,0.048,0.485,0.096,0.719,0.146c0.425,0.091,0.847,0.191,1.268,0.293c0.363,0.088,0.719,0.18,1.069,0.274     c0.522,0.141,1.044,0.284,1.558,0.444c0.045,0.014,0.087,0.028,0.132,0.042c0.574,0.18,1.14,0.376,1.704,0.578     c0.135,0.048,0.271,0.094,0.405,0.144c9.34,3.457,17.211,9.959,22.419,18.299c0.197,0.315,0.39,0.633,0.58,0.955     c2.081,3.525,3.698,7.356,4.753,11.415c0.016,0.062,0.032,0.124,0.048,0.186c0.161,0.629,0.306,1.263,0.439,1.903     c0.02,0.093,0.04,0.185,0.058,0.277c0.124,0.615,0.234,1.236,0.332,1.86c0.019,0.112,0.037,0.222,0.054,0.331     c0.092,0.612,0.168,1.229,0.235,1.848c0.016,0.126,0.031,0.252,0.044,0.38c0.055,0.555,0.093,1.116,0.128,1.677l0.04,0.557     c0.037,0.739,0.056,1.483,0.056,2.231C419.446,361.886,419.444,361.917,419.444,361.949z"/>
		</g>
	</g>
</g>
<g>
</g>
<g>
</g>
<g>
</g>
<g>
</g>
<g>
</g>
<g>
</g>
<g>
</g>
<g>
</g>
<g>
</g>
<g>
</g>
<g>
</g>
<g>
</g>
<g>
</g>
<g>
</g>
<g>
</g>
</svg>
