<?xml version="1.0" encoding="iso-8859-1"?>
<!-- Generator: Adobe Illustrator 19.0.0, SVG Export Plug-In . SVG Version: 6.00 Build 0)  -->
<svg xmlns="http://www.w3.org/2000/svg" xmlns:xlink="http://www.w3.org/1999/xlink" version="1.1" id="Layer_1" x="0px" y="0px" viewBox="0 0 511.999 511.999" style="enable-background:new 0 0 511.999 511.999;" xml:space="preserve">
<g>
	<g>
		<g>
			<path d="M218.329,68.405h76.765c9.483,0,17.198-7.72,17.198-17.209v-1.457c0-9.489-7.715-17.209-17.198-17.209h-3.495     c-4.142,0-7.5,3.357-7.5,7.5c0,4.143,3.358,7.5,7.5,7.5h3.495c1.212,0,2.198,0.991,2.198,2.209v1.457     c0,1.218-0.986,2.209-2.198,2.209h-76.765c-1.212,0-2.198-0.991-2.198-2.209v-1.457c0-1.218,0.986-2.209,2.198-2.209h45.468     c4.142,0,7.5-3.357,7.5-7.5c0-4.143-3.358-7.5-7.5-7.5h-45.468c-9.483,0-17.198,7.72-17.198,17.209v1.457     C201.131,60.686,208.846,68.405,218.329,68.405z"/>
			<path d="M218.334,111.112h76.754c9.486,0,17.204-7.718,17.204-17.204V92.44c0-9.486-7.717-17.203-17.204-17.203h-76.754     c-9.486,0-17.204,7.717-17.204,17.203v1.468C201.131,103.395,208.848,111.112,218.334,111.112z M216.131,92.44     c0-1.215,0.989-2.203,2.204-2.203h76.754c1.215,0,2.204,0.988,2.204,2.203v1.468c0,1.216-0.989,2.204-2.204,2.204h-76.754     c-1.215,0-2.204-0.988-2.204-2.204V92.44z"/>
			<path d="M218.334,153.819h76.754c9.486,0,17.204-7.718,17.204-17.204v-1.468c0-9.486-7.717-17.204-17.204-17.204h-76.754     c-9.486,0-17.204,7.718-17.204,17.204v1.468C201.131,146.102,208.848,153.819,218.334,153.819z M216.131,135.147     c0-1.216,0.989-2.204,2.204-2.204h76.754c1.215,0,2.204,0.988,2.204,2.204v1.468c0,1.216-0.989,2.204-2.204,2.204h-76.754     c-1.215,0-2.204-0.988-2.204-2.204V135.147z"/>
			<path d="M435.367,77.893h-75.479c-0.555-8.13-7.329-14.58-15.598-14.58h-5.755V14.159c0-7.808-6.096-14.159-13.59-14.159H187.051     c-7.494,0-13.59,6.352-13.59,14.159v49.153h-5.755c-8.269,0-15.043,6.45-15.598,14.58h-75.48c-8.94,0-16.213,7.273-16.213,16.214     v11.158c0,8.94,7.273,16.214,16.213,16.214h75.479c0.555,8.13,7.329,14.58,15.598,14.58h5.756v12.317     c0,8.382,1.917,16.634,5.542,23.863l21.344,42.559c2.508,5.002,6.806,8.579,11.814,10.05v54.885c0,4.143,3.358,7.5,7.5,7.5     c4.142,0,7.5-3.357,7.5-7.5v-54.141h57.237v118.335c0,4.085-1.514,7.996-4.322,11.077l-12.06,13.546h-24.474l-12.117-13.609     c-2.75-3.018-4.264-6.93-4.264-11.015v-36.31c0-4.143-3.358-7.5-7.5-7.5c-4.142,0-7.5,3.357-7.5,7.5v36.31     c0,7.831,2.904,15.331,8.119,21.054l12.55,14.096l6.284,116.809c0.569,10.579,8.815,16.115,16.666,16.115     c7.851,0,16.096-5.536,16.666-16.115l6.284-116.81l12.493-14.032c5.273-5.785,8.177-13.285,8.177-21.116V224.96     c5.194-1.388,9.671-5.017,12.251-10.162l21.344-42.559c3.625-7.229,5.542-15.481,5.542-23.863v-12.317h5.756     c8.268,0,15.042-6.45,15.597-14.58h75.48c8.94,0,16.213-7.273,16.213-16.214V94.106     C451.581,85.166,444.308,77.893,435.367,77.893z M152.053,106.479H76.628c-0.669,0-1.213-0.545-1.213-1.214V94.106     c0-0.669,0.544-1.214,1.213-1.214h75.425V106.479z M167.705,121.059c-0.359,0-0.652-0.293-0.652-0.652v-6.428V85.393v-6.428     c0-0.359,0.292-0.652,0.652-0.652h5.755v42.746H167.705z M257.466,495.078c-0.054,0.998-0.295,1.922-1.687,1.922     s-1.633-0.924-1.687-1.922l-6-111.528h15.374L257.466,495.078z M323.535,70.813L323.535,70.813l0,57.746v19.817     c0,6.06-1.366,11.985-3.95,17.139l-21.344,42.559c-0.779,1.554-2.15,2.519-3.577,2.519h-2.766h-72.237h-2.329     c-1.427,0-2.798-0.965-3.577-2.519l-21.344-42.559c-2.584-5.153-3.95-11.079-3.95-17.139v-19.817V70.813V15h135.074V70.813z      M344.942,85.393v28.586v6.428c0,0.359-0.292,0.652-0.651,0.652h-5.756V78.313h5.755c0.359,0,0.652,0.293,0.652,0.652V85.393z      M436.582,105.265L436.582,105.265c-0.001,0.669-0.545,1.214-1.214,1.214h-75.425V92.893h75.425c0.669,0,1.214,0.545,1.214,1.214     V105.265z"/>
		</g>
	</g>
</g>
<g>
</g>
<g>
</g>
<g>
</g>
<g>
</g>
<g>
</g>
<g>
</g>
<g>
</g>
<g>
</g>
<g>
</g>
<g>
</g>
<g>
</g>
<g>
</g>
<g>
</g>
<g>
</g>
<g>
</g>
</svg>
