<?xml version="1.0" encoding="iso-8859-1"?>
<!-- Generator: Adobe Illustrator 19.0.0, SVG Export Plug-In . SVG Version: 6.00 Build 0)  -->
<svg xmlns="http://www.w3.org/2000/svg" xmlns:xlink="http://www.w3.org/1999/xlink" version="1.1" id="Layer_1" x="0px" y="0px" viewBox="0 0 512 512" style="enable-background:new 0 0 512 512;" xml:space="preserve">
<g>
	<g>
		<g>
			<path d="M386.894,112.559H125.106C56.122,112.559,0,168.687,0,237.678v51.879c0,16.354,11.952,29.962,27.577,32.565v19.575     c0,10.521,8.561,19.081,19.082,19.081h6.227c3.436,21.876,22.409,38.663,45.233,38.663h18.103c4.143,0,7.5-3.358,7.5-7.5     c0-4.142-3.357-7.5-7.5-7.5H98.119c-16.979,0-30.792-13.815-30.792-30.796v-0.367V276.88v-0.367     c0-16.98,13.813-30.795,30.792-30.795h260.68c4.143,0,7.5-3.358,7.5-7.5c0-4.142-3.357-7.5-7.5-7.5H98.119     c-0.753,0-1.502,0.021-2.247,0.057c-0.247,0.012-0.49,0.035-0.736,0.051c-0.496,0.032-0.993,0.065-1.485,0.113     c-0.289,0.028-0.576,0.066-0.864,0.099c-0.444,0.052-0.888,0.105-1.328,0.169c-0.303,0.044-0.603,0.096-0.904,0.146     c-0.421,0.07-0.841,0.144-1.258,0.225c-0.305,0.06-0.608,0.124-0.911,0.19c-0.409,0.089-0.816,0.183-1.221,0.283     c-0.3,0.074-0.6,0.15-0.898,0.23c-0.405,0.109-0.806,0.224-1.206,0.343c-0.29,0.086-0.58,0.172-0.867,0.264     c-0.406,0.13-0.809,0.269-1.21,0.41c-0.274,0.096-0.549,0.19-0.821,0.291c-0.423,0.158-0.841,0.327-1.258,0.497     c-0.242,0.098-0.486,0.192-0.725,0.294c-0.5,0.214-0.992,0.441-1.483,0.672c-0.15,0.071-0.303,0.135-0.453,0.207     c-0.635,0.307-1.262,0.629-1.881,0.965c-0.172,0.093-0.339,0.195-0.51,0.29c-0.444,0.248-0.887,0.499-1.322,0.761     c-0.23,0.139-0.455,0.286-0.682,0.428c-0.368,0.231-0.736,0.463-1.097,0.704c-0.243,0.162-0.481,0.331-0.721,0.498     c-0.338,0.235-0.674,0.472-1.005,0.715c-0.242,0.178-0.48,0.361-0.718,0.543c-0.32,0.246-0.638,0.495-0.952,0.749     c-0.235,0.19-0.468,0.383-0.7,0.578c-0.308,0.259-0.611,0.523-0.912,0.79c-0.225,0.2-0.45,0.401-0.671,0.605     c-0.3,0.277-0.593,0.56-0.885,0.844c-0.21,0.205-0.422,0.408-0.628,0.617c-0.299,0.303-0.591,0.614-0.882,0.925     c-0.188,0.201-0.378,0.398-0.562,0.602c-0.319,0.353-0.627,0.716-0.935,1.079c-0.145,0.171-0.295,0.338-0.438,0.512     c-0.443,0.539-0.875,1.087-1.294,1.646c-0.066,0.088-0.127,0.18-0.192,0.269c-0.351,0.476-0.696,0.956-1.029,1.446     c-0.14,0.206-0.272,0.419-0.41,0.627c-0.249,0.379-0.497,0.758-0.734,1.144c-0.149,0.242-0.29,0.489-0.435,0.734     c-0.214,0.363-0.426,0.726-0.63,1.095c-0.144,0.261-0.282,0.525-0.422,0.788c-0.191,0.362-0.38,0.726-0.561,1.094     c-0.135,0.273-0.265,0.547-0.395,0.823c-0.173,0.37-0.342,0.742-0.505,1.117c-0.122,0.279-0.242,0.558-0.358,0.84     c-0.158,0.381-0.308,0.766-0.455,1.153c-0.108,0.282-0.216,0.563-0.318,0.848c-0.144,0.401-0.278,0.805-0.411,1.211     c-0.09,0.276-0.184,0.55-0.269,0.828c-0.136,0.443-0.259,0.891-0.381,1.339c-0.067,0.246-0.14,0.49-0.203,0.737     c-0.15,0.587-0.284,1.18-0.411,1.776c-0.024,0.113-0.054,0.224-0.077,0.338c-0.139,0.682-0.264,1.369-0.373,2.061h-6.223h-0.001     c-8.831,0-16.258,6.039-18.424,14.198c-0.415,1.562-0.657,3.193-0.657,4.883v18.277C20.293,304.426,15,297.598,15,289.557     v-51.879c0-60.72,49.394-110.119,110.106-110.119h261.787c60.713,0,110.106,49.399,110.106,110.119v51.879     c0,8.042-5.293,14.869-12.577,17.182v-18.277c0-1.69-0.243-3.322-0.657-4.883c-2.166-8.159-9.593-14.198-18.424-14.198h-0.001     h-6.227c-3.436-21.875-22.409-38.663-45.233-38.663H389c-4.143,0-7.5,3.358-7.5,7.5c0,4.142,3.357,7.5,7.5,7.5h24.881     c16.979,0,30.792,13.815,30.792,30.795v0.367v76.398v0.367c0,16.981-13.813,30.796-30.792,30.796h-89.313     c-18.846,0-35.333-12.072-41.026-30.04l-6.138-19.369c-3.032-9.573-11.816-16.005-21.858-16.005     c-10.202,0-19.027,6.566-21.961,16.338l-5.526,18.41c-5.506,18.342-22.07,30.666-41.219,30.666h-40.09     c-4.143,0-7.5,3.358-7.5,7.5c0,4.142,3.357,7.5,7.5,7.5h40.089c25.822,0,48.161-16.619,55.586-41.354l5.526-18.41     c1.015-3.38,4.066-5.651,7.594-5.651c3.473,0,6.511,2.224,7.56,5.536l6.138,19.37c7.677,24.23,29.91,40.509,55.325,40.509h89.313     c22.824,0,41.797-16.787,45.233-38.663h6.227c10.521,0,19.082-8.56,19.082-19.081v-19.575     C500.048,319.519,512,305.911,512,289.557v-51.879C512,168.687,455.878,112.559,386.894,112.559z M42.577,315.079v-26.617     c0-0.944,0.335-1.804,0.876-2.496c0.748-0.958,1.9-1.586,3.206-1.586h5.668v61.398h-5.668c-2.251,0-4.082-1.831-4.082-4.081     V315.079z M465.341,345.778h-5.668V284.38h5.668c1.307,0,2.458,0.628,3.206,1.586c0.219,0.28,0.415,0.578,0.555,0.909     c0.004,0.008,0.005,0.018,0.008,0.026c0.2,0.481,0.313,1.008,0.313,1.561v26.617v26.618h0     C469.423,343.947,467.592,345.778,465.341,345.778z"/>
			<path d="M217.49,350.601l5.526-18.409c4.345-14.475,17.417-24.2,32.528-24.2l0.569,0.004     c14.606,0.235,27.464,9.995,31.993,24.288l5.952,18.783c4.231,13.361,16.491,22.338,30.507,22.338h89.315     c10.895,0,19.758-8.864,19.758-19.759v-77.134c0-10.895-8.863-19.759-19.758-19.759H98.119c-10.896,0-19.76,8.864-19.76,19.76     v77.131c0,10.896,8.864,19.76,19.76,19.76h88.719C201.078,373.405,213.396,364.24,217.49,350.601z M93.359,353.645v-77.131     c0-2.625,2.135-4.76,4.76-4.76h315.763c2.623,0,4.758,2.135,4.758,4.759v77.134c0,2.624-2.135,4.759-4.758,4.759h-89.315     c-7.445,0-13.959-4.769-16.208-11.868l-5.952-18.784c-6.48-20.449-24.987-34.416-46.043-34.754     c-0.272-0.004-0.546-0.006-0.818-0.006c-21.785,0-40.631,14.021-46.896,34.888l-5.526,18.409     c-2.175,7.247-8.72,12.116-16.285,12.116h-88.72C95.494,358.405,93.359,356.269,93.359,353.645z"/>
		</g>
	</g>
</g>
<g>
</g>
<g>
</g>
<g>
</g>
<g>
</g>
<g>
</g>
<g>
</g>
<g>
</g>
<g>
</g>
<g>
</g>
<g>
</g>
<g>
</g>
<g>
</g>
<g>
</g>
<g>
</g>
<g>
</g>
</svg>
