<?xml version="1.0" encoding="iso-8859-1"?>
<!-- Generator: Adobe Illustrator 19.0.0, SVG Export Plug-In . SVG Version: 6.00 Build 0)  -->
<svg xmlns="http://www.w3.org/2000/svg" xmlns:xlink="http://www.w3.org/1999/xlink" version="1.1" id="Layer_1" x="0px" y="0px" viewBox="0 0 512 512" style="enable-background:new 0 0 512 512;" xml:space="preserve">
<g>
	<g>
		<g>
			<path d="M506.883,100.485l-33.452-33.373c-2.933-2.925-7.682-2.92-10.606,0.013c-2.926,2.932-2.92,7.681,0.013,10.606     l33.452,33.373c0.588,0.586,0.711,1.253,0.711,1.709s-0.123,1.123-0.711,1.709c-0.958,0.955-2.518,0.957-3.478,0l-73.874-73.699     c-13.783-13.75-36.209-13.75-49.992,0l-204.92,204.432l-1.111-1.107c-0.426-0.424-0.869-0.819-1.325-1.193     c-0.148-0.122-0.304-0.228-0.456-0.345c-0.257-0.198-0.509-0.404-0.774-0.586l205.108-204.62     c15.699-15.663,41.246-15.662,56.945,0l18.839,18.794c2.931,2.924,7.68,2.919,10.606-0.013c2.926-2.932,2.92-7.681-0.013-10.606     l-18.839-18.794c-21.541-21.49-56.592-21.49-78.133,0L76.24,304.855c-2.931,2.928-2.933,7.676-0.005,10.606     c2.927,2.93,7.676,2.933,10.606,0.004l60.729-60.682l0.005-0.005c0.083-0.083,0.178-0.146,0.268-0.218     c0.087-0.071,0.169-0.151,0.261-0.212c0.139-0.091,0.287-0.16,0.435-0.228c0.051-0.023,0.097-0.057,0.149-0.078     c0.167-0.068,0.341-0.113,0.515-0.152c0.036-0.008,0.071-0.025,0.108-0.032c0.164-0.032,0.33-0.04,0.496-0.048     c0.049-0.002,0.097-0.014,0.146-0.014c0.152,0,0.302,0.023,0.452,0.043c0.063,0.008,0.127,0.006,0.19,0.018     c0.168,0.032,0.331,0.087,0.494,0.145c0.042,0.015,0.087,0.021,0.129,0.038c0.405,0.163,0.784,0.408,1.111,0.734l4.527,4.509     l1.881,1.874c0.001,0.001,0.001,0.001,0.002,0.002l21.587,21.5c0.85,0.847,0.978,1.833,0.978,2.346s-0.126,1.499-0.975,2.347     c-4.305,4.302-6.673,10.021-6.668,16.102c0.005,6.082,2.382,11.797,6.694,16.092l11.455,11.41     c4.914,4.895,7.684,11.674,7.598,18.601l-0.508,40.562c-0.008,0.183-0.012,0.365-0.007,0.548l-0.332,26.502     c-0.037,2.941-1.206,5.708-3.289,7.79l-57.823,57.777c-4.808,4.804-12.637,4.81-17.45,0.014l-54.346-54.129     c-6.507-6.48-15.504-9.888-24.675-9.37c-4.93,0.287-9.747-1.548-13.232-5.022l-7.672-7.641c-3.269-3.256-5.07-7.585-5.074-12.191     c-0.004-4.606,1.792-8.938,5.055-12.198l45.424-45.389c2.931-2.928,2.933-7.676,0.005-10.606     c-2.928-2.93-7.677-2.933-10.606-0.004L9.453,371.589c-6.103,6.098-9.46,14.202-9.453,22.82     c0.007,8.619,3.376,16.719,9.488,22.807l7.672,7.641c6.506,6.48,15.51,9.898,24.676,9.37c4.915-0.287,9.744,1.548,13.232,5.022     l54.345,54.129c5.325,5.304,12.313,7.955,19.304,7.955c7.003,0,14.007-2.663,19.334-7.986l57.824-57.777     c4.869-4.866,7.599-11.333,7.685-18.212l0.297-23.753l268.752-268.111c6.826,6.413,17.598,6.308,24.274-0.352     c3.3-3.292,5.117-7.67,5.117-12.328S510.183,103.777,506.883,100.485z M214.126,372.15l0.281-22.405     c0.137-10.957-4.241-21.679-12.011-29.416l-11.454-11.409c-1.469-1.463-2.279-3.408-2.28-5.477     c-0.002-2.068,0.805-4.014,2.271-5.479c3.468-3.464,5.376-8.07,5.372-12.969c-0.004-4.899-1.918-9.502-5.392-12.962     l-16.258-16.193L379.539,51.443c7.942-7.921,20.862-7.922,28.805,0l63.627,63.476L214.126,372.15z"/>
			<path d="M69.91,405.69l33.584,33.451c5.946,5.922,13.845,9.183,22.243,9.183c0.009,0,0.018,0,0.025,0l13.429-0.011     c8.408-0.007,16.311-3.281,22.253-9.218c5.947-5.942,9.219-13.841,9.212-22.24l-0.058-72.013     c-0.014-17.325-14.138-31.409-31.491-31.409c-0.007,0-0.018,0-0.024,0l-8.358,0.007c-8.408,0.006-16.311,3.28-22.253,9.218     l-38.597,38.566c-5.948,5.942-9.22,13.841-9.212,22.241C60.67,391.865,63.954,399.758,69.91,405.69z M80.477,371.835     l38.597-38.566c3.113-3.11,7.255-4.825,11.663-4.829l8.358-0.007c0.004,0,0.009,0,0.013,0c9.087,0,16.483,7.364,16.491,16.42     l0.058,72.013c0.004,4.386-1.706,8.512-4.814,11.618c-3.112,3.11-7.254,4.825-11.662,4.829l-13.429,0.011     c-0.005,0-0.008,0-0.013,0c-4.403,0-8.544-1.708-11.658-4.811l-33.584-33.451c-3.113-3.101-4.83-7.223-4.834-11.609     C75.659,379.067,77.369,374.941,80.477,371.835z"/>
		</g>
	</g>
</g>
<g>
</g>
<g>
</g>
<g>
</g>
<g>
</g>
<g>
</g>
<g>
</g>
<g>
</g>
<g>
</g>
<g>
</g>
<g>
</g>
<g>
</g>
<g>
</g>
<g>
</g>
<g>
</g>
<g>
</g>
</svg>
