<?xml version="1.0" encoding="iso-8859-1"?>
<!-- Generator: Adobe Illustrator 19.0.0, SVG Export Plug-In . SVG Version: 6.00 Build 0)  -->
<svg xmlns="http://www.w3.org/2000/svg" xmlns:xlink="http://www.w3.org/1999/xlink" version="1.1" id="Layer_1" x="0px" y="0px" viewBox="0 0 511.999 511.999" style="enable-background:new 0 0 511.999 511.999;" xml:space="preserve">
<g>
	<g>
		<path d="M505.284,222.309l-25.852-25.852c-2.928-2.929-7.676-2.93-10.608,0c-2.929,2.928-2.929,7.677,0,10.607l25.852,25.852    c3.105,3.106,3.105,8.159,0,11.266l-16.069,16.069c-1.504,1.504-3.504,2.333-5.632,2.333s-4.128-0.829-5.632-2.333L251.754,44.66    c-3.105-3.106-3.105-8.159,0-11.266l3.497-3.497l140.999,141c1.465,1.465,3.384,2.197,5.304,2.197    c1.919,0,3.839-0.733,5.304-2.197c2.929-2.928,2.929-7.677,0-10.607L265.857,19.29l1.964-1.964c3.106-3.105,8.159-3.107,11.267,0    l168.32,168.319c2.929,2.929,7.677,2.93,10.608,0c2.929-2.928,2.929-7.677,0-10.607L289.696,6.718    c-8.956-8.955-23.526-8.955-32.481,0l-16.067,16.069c-8.955,8.954-8.955,23.525,0,32.48l73.566,73.567l-181.762,205.03    c-2.748,3.099-2.463,7.839,0.637,10.588c3.099,2.747,7.839,2.462,10.588-0.637L325.339,139.46l47.203,47.204L24.166,495.511    c-3.452,2.997-6.332,0.815-7.409-0.262c-1.077-1.077-3.259-3.955-0.314-7.35l107.652-121.433    c2.748-3.099,2.463-7.839-0.637-10.588c-3.1-2.748-7.84-2.464-10.588,0.637L5.166,478.007c-8.195,9.443-5.708,21.157,0.983,27.85    c3.72,3.72,8.991,6.14,14.573,6.14c4.459,0,9.117-1.545,13.337-5.208l349.111-309.498l73.566,73.567    c4.338,4.338,10.105,6.727,16.24,6.727c6.135,0,11.902-2.39,16.24-6.727l16.069-16.069    C514.237,245.835,514.237,231.264,505.284,222.309z"/>
	</g>
</g>
<g>
</g>
<g>
</g>
<g>
</g>
<g>
</g>
<g>
</g>
<g>
</g>
<g>
</g>
<g>
</g>
<g>
</g>
<g>
</g>
<g>
</g>
<g>
</g>
<g>
</g>
<g>
</g>
<g>
</g>
</svg>
