<?xml version="1.0" encoding="iso-8859-1"?>
<!-- Generator: Adobe Illustrator 19.0.0, SVG Export Plug-In . SVG Version: 6.00 Build 0)  -->
<svg xmlns="http://www.w3.org/2000/svg" xmlns:xlink="http://www.w3.org/1999/xlink" version="1.1" id="Layer_1" x="0px" y="0px" viewBox="0 0 512 512" style="enable-background:new 0 0 512 512;" xml:space="preserve">
<g>
	<g>
		<path d="M496.924,15.11C482.62,0.809,463.154-3.717,446.118,3.297L226.277,93.845c-16.161,6.656-29.209,18.157-37.734,33.259    c-8.467,14.999-11.888,32.538-9.894,50.72l5.45,49.682c1.035,9.434,3.373,18.732,6.885,27.659    c0.023,0.063,0.039,0.126,0.064,0.189c0.489,1.236,1.008,2.462,1.543,3.684c0.054,0.123,0.107,0.247,0.161,0.37    c0.578,1.309,1.183,2.608,1.813,3.898c0.088,0.18,0.176,0.36,0.265,0.539c0.617,1.248,1.256,2.485,1.92,3.714    c0.114,0.212,0.232,0.422,0.348,0.634c0.661,1.205,1.341,2.401,2.047,3.586c0.126,0.212,0.257,0.421,0.385,0.632    c0.284,0.47,0.566,0.942,0.857,1.408l-46.402,46.416l-10.877-10.88c-2.523-2.523-5.879-3.914-9.448-3.914    c-3.568,0-6.924,1.39-9.449,3.915l-14.24,14.244c-5.207,5.209-5.207,13.684,0,18.892l0.474,0.474L71.35,382.069    c-2.927,2.929-2.927,7.676,0.001,10.604c2.929,2.927,7.676,2.927,10.604-0.001l39.091-39.102l37.279,37.288L57.843,491.367    c-3.603,3.603-8.393,5.589-13.487,5.589c-5.095,0-9.885-1.984-13.488-5.589l-10.301-10.304c-7.438-7.44-7.438-19.547,0-26.988    l40.037-40.048c2.927-2.929,2.927-7.676-0.001-10.604c-2.929-2.927-7.675-2.927-10.604,0.001L9.962,443.473    c-13.283,13.287-13.283,34.907,0,48.194l10.301,10.304c6.435,6.436,14.992,9.982,24.093,9.982c9.101,0,17.658-3.545,24.093-9.982    l100.478-100.506l0.035,0.035c2.523,2.524,5.879,3.915,9.449,3.915c3.569,0,6.925-1.391,9.449-3.915l14.241-14.244    c5.206-5.209,5.206-13.684,0-18.893l-10.202-10.205l46.402-46.416c0.461,0.288,0.927,0.566,1.391,0.847    c0.218,0.132,0.435,0.268,0.654,0.398c1.179,0.703,2.37,1.38,3.569,2.038c0.216,0.118,0.43,0.238,0.647,0.355    c1.225,0.663,2.46,1.3,3.705,1.916c0.182,0.09,0.363,0.179,0.545,0.268c1.29,0.63,2.587,1.234,3.896,1.813    c0.122,0.054,0.245,0.107,0.368,0.16c1.222,0.535,2.448,1.054,3.684,1.544c0.063,0.025,0.126,0.041,0.189,0.064    c8.925,3.513,18.221,5.853,27.652,6.887l49.669,5.452c3.37,0.37,6.714,0.554,10.028,0.554c14.562,0,28.465-3.55,40.682-10.451    c15.097-8.527,26.596-21.579,33.249-37.743l53.595-130.194c1.577-3.829-0.25-8.211-4.08-9.789c-3.83-1.576-8.211,0.251-9.789,4.08    l-53.595,130.194c-10.995,26.711-37.861,41.801-68.455,38.443l-49.669-5.452c-5.704-0.626-11.308-1.824-16.759-3.511l26.6-64.616    c2.676-6.501,1.834-13.78-2.311-19.969c-4.35-6.495-11.607-10.53-18.94-10.53c-2.654,0-5.251,0.515-7.715,1.53l-64.594,26.605    c-1.688-5.453-2.884-11.058-3.51-16.764l-5.45-49.682c-3.356-30.6,11.729-57.479,38.432-68.478l219.841-90.547    c13.544-5.581,26.698,0.76,34.492,8.551c7.799,7.797,14.144,20.961,8.562,34.519l-25.379,61.651    c-1.577,3.829,0.25,8.211,4.08,9.789c3.83,1.576,8.211-0.25,9.789-4.08l25.379-61.651    C515.768,48.898,511.236,29.419,496.924,15.11z M178.411,389.74l-4.179-4.18c-0.001-0.001-0.002-0.002-0.003-0.003l-29.656-29.664    l-22.843-22.85l11.926-11.929l15.015,15.02c0.003,0.003,0.004,0.005,0.007,0.008l27.313,27.32    c0.002,0.002,0.004,0.003,0.006,0.005l14.34,14.344L178.411,389.74z M272.822,229.897c0.653-0.269,1.309-0.4,2.004-0.4    c2.321,0,4.926,1.559,6.479,3.878c0.772,1.153,1.917,3.455,0.903,5.916l-26.663,64.77c-20.39-10.013-37.467-27.097-47.477-47.493    L272.822,229.897z M209.26,286.153c2.487,3.035,5.118,5.978,7.924,8.785c2.807,2.808,5.75,5.44,8.785,7.929l-44.673,44.686    l-16.71-16.714L209.26,286.153z"/>
	</g>
</g>
<g>
</g>
<g>
</g>
<g>
</g>
<g>
</g>
<g>
</g>
<g>
</g>
<g>
</g>
<g>
</g>
<g>
</g>
<g>
</g>
<g>
</g>
<g>
</g>
<g>
</g>
<g>
</g>
<g>
</g>
</svg>
