<?xml version="1.0" encoding="iso-8859-1"?>
<!-- Generator: Adobe Illustrator 19.0.0, SVG Export Plug-In . SVG Version: 6.00 Build 0)  -->
<svg xmlns="http://www.w3.org/2000/svg" xmlns:xlink="http://www.w3.org/1999/xlink" version="1.1" id="Layer_1" x="0px" y="0px" viewBox="0 0 512 512" style="enable-background:new 0 0 512 512;" xml:space="preserve">
<g>
	<g>
		<g>
			<path d="M368.443,183.859c-4.055-0.852-8.031,1.739-8.886,5.792c-12.348,58.564-48.472,128.063-87.65,143.353     c-0.122,0.04-0.243,0.083-0.364,0.13c-1.169,0.453-2.447,0.883-3.848,1.298c-1.303,0.375-2.617,0.692-3.905,0.943     c-0.038,0.007-0.076,0.015-0.113,0.023c-0.122,0.026-0.248,0.045-0.372,0.067c-0.124,0.022-0.247,0.048-0.372,0.067     c-0.069,0.011-0.138,0.022-0.206,0.035c-0.305,0.056-0.619,0.104-0.854,0.14c-0.97,0.139-1.914,0.245-2.806,0.317     c-0.095,0.004-0.19,0.01-0.285,0.018c-0.284,0.023-0.568,0.039-0.935,0.059c-0.145,0.009-0.288,0.014-0.425,0.019     c-0.079,0.003-0.158,0.005-0.228,0.007c-0.396,0.008-0.808,0.012-1.204,0.012c-0.395,0-0.776-0.004-1.117-0.011     c-0.167-0.005-0.344-0.011-0.533-0.02c-0.084-0.004-0.164-0.007-0.259-0.013c-0.292-0.016-0.577-0.031-0.86-0.054     c-0.089-0.007-0.183-0.013-0.276-0.018c-0.895-0.072-1.84-0.179-2.738-0.307c-0.313-0.048-0.626-0.096-0.931-0.151     c-0.068-0.013-0.137-0.024-0.206-0.035c-0.125-0.019-0.248-0.045-0.372-0.067c-0.124-0.022-0.25-0.042-0.372-0.067     c-0.038-0.008-0.076-0.016-0.113-0.023c-1.288-0.251-2.602-0.568-3.847-0.926c-1.459-0.433-2.737-0.863-3.906-1.315     c-0.12-0.047-0.241-0.09-0.363-0.13c-39.173-15.288-75.298-84.781-87.648-143.34c-0.854-4.053-4.83-6.65-8.886-5.791     c-4.053,0.854-6.646,4.833-5.791,8.886c6.425,30.467,19.086,63.641,34.737,91.014c12.398,21.684,32.221,49.264,57.743,61.304     v48.493c0,14.202,11.552,25.756,25.752,25.756c11.331,0,20.549,9.228,20.549,20.571c0,11.348-9.218,20.581-20.549,20.581     c-11.331,0-20.549-9.232-20.549-20.581c0-14.202-11.552-25.756-25.752-25.756c-14.2,0-25.752,11.554-25.752,25.756     C183.947,479.655,216.27,512,256,512s72.053-32.345,72.053-72.102c0-29.827-18.776-56.744-46.301-67.332v-27.488     c25.524-12.041,45.349-39.625,57.747-61.312c15.651-27.377,28.312-60.553,34.736-91.021     C375.089,188.692,372.496,184.714,368.443,183.859z M313.053,439.898C313.053,471.384,287.459,497,256,497     c-31.459,0-57.053-25.616-57.053-57.102c0-5.931,4.823-10.756,10.752-10.756c5.929,0,10.752,4.825,10.752,10.756     c0,19.619,15.947,35.581,35.549,35.581s35.549-15.961,35.549-35.581c0-19.614-15.947-35.571-35.549-35.571     c-5.929,0-10.752-4.825-10.752-10.756V350.08c0.013,0.002,0.026,0.005,0.039,0.008c0.455,0.095,0.919,0.179,1.385,0.253     c0.413,0.074,0.84,0.141,1.333,0.216c1.256,0.18,2.492,0.32,3.675,0.417c0.21,0.021,0.397,0.033,0.551,0.039     c0.206,0.015,0.406,0.028,0.599,0.039c0.129,0.008,0.257,0.015,0.375,0.021c0.177,0.011,0.358,0.02,0.543,0.027     c0.231,0.01,0.47,0.018,0.727,0.025c0.007,0,0.015,0,0.022,0c0.343,0.008,0.677,0.012,1.012,0.015     c0.165,0.002,0.326,0.007,0.491,0.007c0.511,0,1.021-0.01,1.619-0.024c0.269-0.008,0.533-0.018,0.78-0.03     c0.11-0.005,0.225-0.01,0.322-0.016c0.355-0.019,0.702-0.039,1.048-0.064c0.154-0.006,0.341-0.017,0.551-0.039     c1.184-0.097,2.422-0.237,3.752-0.428c0.421-0.064,0.843-0.131,1.256-0.205c0.466-0.074,0.931-0.158,1.385-0.253     c0.013-0.002,0.026-0.005,0.039-0.008v27.854c0,3.324,2.188,6.251,5.375,7.193C296.224,392.245,313.053,414.768,313.053,439.898z     "/>
			<path d="M349.298,86.272V7.5c0-4.142-3.358-7.5-7.5-7.5c-4.142,0-7.5,3.358-7.5,7.5v65.313     C312.462,56.34,284.757,47.117,256,47.117c-28.758,0-56.465,9.223-78.298,25.695V7.5c0-4.142-3.358-7.5-7.5-7.5     c-4.142,0-7.5,3.358-7.5,7.5v78.772c-18.785,20.033-29.096,45.42-29.096,71.831c0,1.562,0.036,3.195,0.107,4.854     c0.178,4.138,3.662,7.347,7.815,7.171c4.138-0.178,7.349-3.677,7.171-7.815c-0.063-1.445-0.094-2.862-0.094-4.21     c0-23.434,9.563-45.999,26.931-63.542C195.911,73.943,225.239,62.117,256,62.117s60.089,11.826,80.468,32.45     c17.363,17.538,26.926,40.102,26.926,63.536c0,1.362-0.032,2.784-0.095,4.228c-0.18,4.139,3.029,7.639,7.167,7.819     c0.111,0.004,0.221,0.007,0.332,0.007c3.992,0,7.312-3.147,7.487-7.174c0.072-1.66,0.109-3.301,0.109-4.879     C378.394,131.69,368.081,106.301,349.298,86.272z"/>
			<path d="M332.883,167.681c0-42.428-34.489-76.945-76.883-76.945c-42.399,0-76.893,34.518-76.893,76.945     s34.494,76.945,76.893,76.945C298.394,244.626,332.883,210.109,332.883,167.681z M194.107,167.681     c0-34.157,27.765-61.945,61.893-61.945c34.122,0,61.883,27.789,61.883,61.945S290.122,229.626,256,229.626     C221.872,229.626,194.107,201.838,194.107,167.681z"/>
		</g>
	</g>
</g>
<g>
</g>
<g>
</g>
<g>
</g>
<g>
</g>
<g>
</g>
<g>
</g>
<g>
</g>
<g>
</g>
<g>
</g>
<g>
</g>
<g>
</g>
<g>
</g>
<g>
</g>
<g>
</g>
<g>
</g>
</svg>
