<?xml version="1.0" encoding="iso-8859-1"?>
<!-- Generator: Adobe Illustrator 19.0.0, SVG Export Plug-In . SVG Version: 6.00 Build 0)  -->
<svg xmlns="http://www.w3.org/2000/svg" xmlns:xlink="http://www.w3.org/1999/xlink" version="1.1" id="Layer_1" x="0px" y="0px" viewBox="0 0 512 512" style="enable-background:new 0 0 512 512;" xml:space="preserve">
<g>
	<g>
		<g>
			<path d="M69.042,398.303l29.424,38.017c5.209,6.73,12.727,11.029,21.17,12.105l13.494,1.719c1.36,0.173,2.712,0.257,4.049,0.257     c15.79,0,29.537-11.77,31.584-27.837l9.242-72.536c2.221-17.427-10.151-33.413-27.579-35.634l-8.399-1.07     c-8.446-1.075-16.799,1.201-23.53,6.41l-43.761,33.87C60.845,364.358,58.289,384.41,69.042,398.303z M83.992,365.562     l43.761-33.87c2.963-2.294,6.525-3.505,10.213-3.505c0.713,0,1.431,0.045,2.15,0.137l8.4,1.07     c9.158,1.167,15.659,9.566,14.492,18.724l-9.242,72.535c-1.167,9.157-9.58,15.658-18.724,14.492l-13.493-1.719     c-4.437-0.565-8.387-2.824-11.124-6.36L81,389.049C75.349,381.748,76.692,371.212,83.992,365.562z"/>
			<path d="M507.466,42.61l-17.902-23.131c-8.623-11.141-24.702-13.189-35.842-4.567L92.089,294.806     c-3.302,2.555-3.907,7.304-1.351,10.606c2.555,3.302,7.303,3.906,10.606,1.352l65.18-50.447c0.001-0.001,0.003-0.002,0.004-0.003     l0.003-0.003c1.497-1.156,3.655-0.879,4.813,0.616l24.529,31.692c1.159,1.497,0.883,3.658-0.614,4.817     c-4.869,3.769-7.979,9.207-8.757,15.315c-0.779,6.108,0.868,12.153,4.637,17.021l10.035,12.967     c4.316,5.577,6.227,12.779,5.243,19.761l-9.582,67.988c-0.419,2.974-1.958,5.625-4.333,7.463l-65.559,50.741     c-5.463,4.227-13.347,3.223-17.576-2.239l-47.614-61.518c-5.694-7.357-14.282-11.951-23.562-12.603     c-4.989-0.351-9.606-2.821-12.667-6.775l-6.721-8.684c-2.873-3.713-4.128-8.322-3.536-12.979     c0.594-4.657,2.965-8.804,6.678-11.677l55.164-42.695c3.302-2.555,3.907-7.304,1.351-10.606     c-2.554-3.302-7.303-3.907-10.606-1.352L12.689,356.26c-6.906,5.346-11.317,13.06-12.421,21.723     c-1.104,8.664,1.231,17.238,6.578,24.144l6.721,8.684c5.694,7.357,14.281,11.951,23.563,12.604     c4.988,0.351,9.605,2.82,12.666,6.775l47.614,61.518c5.442,7.031,13.625,10.715,21.895,10.714c5.91,0,11.867-1.883,16.892-5.772     l65.56-50.741c5.509-4.264,9.078-10.411,10.051-17.31l1.431-10.151l236.238-280.285c2.691-3.192,2.285-7.962-0.908-10.653     c-3.195-2.691-7.962-2.284-10.653,0.909L217.208,390.276l4.181-29.666c1.549-10.997-1.46-22.342-8.258-31.126l-10.036-12.967     c-1.296-1.675-1.863-3.754-1.595-5.856c0.268-2.101,1.338-3.973,3.013-5.27c8.09-6.262,9.577-17.937,3.315-26.027L183.3,247.671     c-0.719-0.928-1.516-1.758-2.363-2.511l282.04-218.291c4.549-3.521,11.111-2.683,14.631,1.864l17.902,23.131     c1.922,2.483,1.848,6.027-0.175,8.428L457.67,104.98c-2.691,3.192-2.285,7.962,0.908,10.653     c3.194,2.691,7.963,2.284,10.653-0.909l37.665-44.688C513.48,62.224,513.72,50.689,507.466,42.61z"/>
		</g>
	</g>
</g>
<g>
</g>
<g>
</g>
<g>
</g>
<g>
</g>
<g>
</g>
<g>
</g>
<g>
</g>
<g>
</g>
<g>
</g>
<g>
</g>
<g>
</g>
<g>
</g>
<g>
</g>
<g>
</g>
<g>
</g>
</svg>
