<?xml version="1.0" encoding="iso-8859-1"?>
<!-- Generator: Adobe Illustrator 19.0.0, SVG Export Plug-In . SVG Version: 6.00 Build 0)  -->
<svg xmlns="http://www.w3.org/2000/svg" xmlns:xlink="http://www.w3.org/1999/xlink" version="1.1" id="Layer_1" x="0px" y="0px" viewBox="0 0 511.999 511.999" style="enable-background:new 0 0 511.999 511.999;" xml:space="preserve">
<g>
	<g>
		<path d="M482.489,236.234c-4.143,0-7.5,3.358-7.5,7.5v89.7h-44.966v-9.204c0-5.713-4.647-10.36-10.36-10.36h-18.329V197.531    h18.329c5.713,0,10.36-4.648,10.36-10.361v-9.204h44.966v35.612c-0.001,4.142,3.357,7.5,7.499,7.5c4.143,0,7.5-3.358,7.5-7.5    V176.64c0-7.54-6.118-13.674-13.638-13.674h-47.69c-7.52,0-13.638,6.134-13.638,13.674v5.891H399.97    c-7.52,0-13.638,6.134-13.638,13.674v1.36H220.289c-1.188-6.955-7.227-12.271-14.496-12.271h-39.412V162.85    c0-7.136-5.074-13.104-11.793-14.47V72.661c8.198-0.639,14.678-7.5,14.678-15.859V15.921C169.266,7.142,162.123,0,153.344,0    H37.932C29.153,0,22.01,7.142,22.01,15.921v40.881c0,8.779,7.143,15.922,15.922,15.922h0.99v75.532    c-7.114,1.037-12.602,7.177-12.602,14.594v185.7c0,7.417,5.488,13.558,12.602,14.594v23.715c0,4.142,3.357,7.5,7.5,7.5    c4.143,0,7.5-3.358,7.5-7.5v-23.544h85.666v75.961H53.922v-22.297c0-4.142-3.357-7.5-7.5-7.5c-4.143,0-7.5,3.358-7.5,7.5v22.297    h-0.99c-8.779,0-15.922,7.142-15.922,15.921v40.881c0,8.779,7.143,15.921,15.922,15.921h115.412    c8.779,0,15.922-7.142,15.922-15.921v-40.881c0-8.359-6.479-15.22-14.678-15.858V363.02c6.719-1.366,11.793-7.334,11.793-14.47    v-22.445h39.412c7.269,0,13.308-5.316,14.496-12.271h166.044v1.361c0,7.54,6.118,13.674,13.638,13.674h15.052v5.89    c0,7.54,6.118,13.674,13.638,13.674h47.69c7.52,0,13.638-6.134,13.638-13.674v-91.025    C489.989,239.592,486.632,236.234,482.489,236.234z M37.932,57.724c-0.509,0-0.922-0.413-0.922-0.922V15.921    c0-0.508,0.413-0.921,0.922-0.921h115.412c0.509,0,0.922,0.413,0.922,0.921v40.881c0,0.508-0.413,0.922-0.922,0.922h-6.256H46.422    H37.932z M139.588,72.724v75.36H53.922v-75.36H139.588z M154.266,496.079c0,0.508-0.413,0.921-0.922,0.921H37.932    c-0.509,0-0.922-0.413-0.922-0.921v-40.881c0-0.508,0.413-0.921,0.922-0.921h115.412c0.509,0,0.922,0.413,0.922,0.921V496.079z     M164.988,311.105c-7.503,0-13.606,6.12-13.606,13.643v23.568H41.32V163.084h110.061v23.568c0,7.522,6.104,13.643,13.606,13.643    h40.528v110.81H164.988z M386.333,298.834H220.516v-86.269h165.817V298.834z"/>
	</g>
</g>
<g>
</g>
<g>
</g>
<g>
</g>
<g>
</g>
<g>
</g>
<g>
</g>
<g>
</g>
<g>
</g>
<g>
</g>
<g>
</g>
<g>
</g>
<g>
</g>
<g>
</g>
<g>
</g>
<g>
</g>
</svg>
