<?xml version="1.0" encoding="iso-8859-1"?>
<!-- Generator: Adobe Illustrator 19.0.0, SVG Export Plug-In . SVG Version: 6.00 Build 0)  -->
<svg xmlns="http://www.w3.org/2000/svg" xmlns:xlink="http://www.w3.org/1999/xlink" version="1.1" id="Layer_1" x="0px" y="0px" viewBox="0 0 511.999 511.999" style="enable-background:new 0 0 511.999 511.999;" xml:space="preserve">
<g>
	<g>
		<path d="M511.065,150.775c-0.243-5.976-5.263-10.644-11.264-10.386l-41.263,1.674l-38.488-23.607    c-3.532-2.166-8.15-1.059-10.314,2.472c-2.166,3.531-1.059,8.149,2.472,10.314l19.422,11.913l-158.521,6.433l-69.395,2.816    l91.271-66.727c11.166-8.163,28.478-8.867,40.269-1.634l51.151,31.374c3.532,2.166,8.149,1.059,10.314-2.472    c2.166-3.531,1.059-8.149-2.472-10.314l-51.151-31.374c-16.952-10.397-40.909-9.427-56.964,2.311l-109.328,79.929l-49.997,2.029    c-5.969,0.242-10.628,5.296-10.386,11.264l0.925,22.801c0.236,5.828,4.99,10.394,10.822,10.395c0.147,0,0.294-0.003,0.442-0.009    l4.515-0.183l18.306,45.048c1.56,3.837,5.935,5.683,9.772,4.125c3.837-1.56,5.684-5.935,4.125-9.772l-16.274-40.047l6.461-0.262    l306.389-12.432L351.05,321.479l-95.494-8.655c-0.082-0.01-0.161-0.031-0.244-0.039l-62.369-5.637l-16.295-40.098    c-1.56-3.837-5.934-5.682-9.772-4.125c-3.837,1.56-5.684,5.935-4.125,9.772l13.382,32.931l-5.456-0.493l-29.401-2.664    c-0.226-0.021-0.423-0.154-0.527-0.355L70.705,166.029c-2.778-5.398-8.493-8.732-14.559-8.481l-48.951,1.986    c-4.139,0.168-7.357,3.659-7.189,7.798c0.168,4.139,3.649,7.36,7.798,7.189l48.951-1.986c0.266-0.005,0.496,0.13,0.614,0.358    l70.044,136.087c2.465,4.788,7.137,7.938,12.505,8.429l13.31,1.206l-9.436,69.156c-0.015,0.113-0.028,0.226-0.039,0.339    c-1.445,15.995,10.391,30.185,26.385,31.63l0.994,0.09c0.871,0.079,1.754,0.119,2.627,0.119c10.31,0,19.872-5.484,25.091-14.349    l59.217-77.485l91.862,8.324l1.182,0.107l14.813,13.671c-6.462,8.908-10.457,19.427-11.465,30.581    c-3.056,33.822,21.971,63.825,55.79,66.882c1.86,0.168,3.747,0.253,5.605,0.253c15.308,0,30-5.692,41.37-16.027    c11.441-10.4,18.508-24.614,19.901-40.022c3.056-33.822-21.971-63.825-55.79-66.882c-1.86-0.168-3.747-0.253-5.605-0.253    c-14.524,0-28.487,5.132-39.59,14.483l-11.526-10.637l117.365-142.959l19.625-0.796c5.968-0.242,10.627-5.294,10.386-11.264    L511.065,150.775z M186.638,396.878c-0.212,0.278-0.405,0.57-0.577,0.875c-2.499,4.438-7.212,7.196-12.302,7.196    c-0.424,0-0.854-0.02-1.277-0.058l-0.994-0.09c-7.706-0.696-13.422-7.493-12.809-15.189l9.502-69.641l3.733,0.337l68.497,6.207    L186.638,396.878z M369.4,382.148c0.727-8.051,3.431-15.435,7.597-21.713l7.359,6.791c-3.332,5.571-5.253,12.079-5.253,19.029    c0,20.507,16.684,37.19,37.19,37.19c20.506,0,37.19-16.684,37.19-37.19c0-20.506-16.684-37.19-37.19-37.19    c-8.143,0-15.678,2.638-21.811,7.094l-7.275-6.714c7.88-6.102,17.776-9.696,28.525-9.696c1.41,0,2.842,0.065,4.255,0.193    c25.582,2.312,44.513,25.008,42.201,50.593c-2.184,24.171-22.102,42.399-46.331,42.399c-1.41,0-2.842-0.065-4.255-0.193    C386.02,430.43,367.089,407.733,369.4,382.148z M394.102,386.255c0-12.235,9.955-22.19,22.19-22.19    c12.235,0,22.19,9.955,22.19,22.19c0,12.236-9.955,22.19-22.19,22.19C404.057,408.446,394.102,398.491,394.102,386.255z     M478.013,170.786L223.081,181.13l-90.917,3.689l-0.587-14.476l48.104-1.952c0.004,0,0.007,0,0.011,0l277.174-11.247    c0,0,0.001,0,0.002,0l39.379-1.598l0.587,14.476L478.013,170.786z"/>
	</g>
</g>
<g>
</g>
<g>
</g>
<g>
</g>
<g>
</g>
<g>
</g>
<g>
</g>
<g>
</g>
<g>
</g>
<g>
</g>
<g>
</g>
<g>
</g>
<g>
</g>
<g>
</g>
<g>
</g>
<g>
</g>
</svg>
