<?xml version="1.0" encoding="iso-8859-1"?>
<!-- Generator: Adobe Illustrator 19.0.0, SVG Export Plug-In . SVG Version: 6.00 Build 0)  -->
<svg xmlns="http://www.w3.org/2000/svg" xmlns:xlink="http://www.w3.org/1999/xlink" version="1.1" id="Layer_1" x="0px" y="0px" viewBox="0 0 511.998 511.998" style="enable-background:new 0 0 511.998 511.998;" xml:space="preserve">
<g>
	<g>
		<g>
			<path d="M506.921,52.604l-10.447-12.653c-1.272-1.542-3.108-2.511-5.099-2.694c-1.988-0.184-3.973,0.438-5.504,1.722     l-79.76,66.894l66.896-79.755c1.285-1.532,1.905-3.513,1.723-5.504c-0.182-1.991-1.152-3.827-2.693-5.1L459.384,5.069     c-3.944-3.256-8.934-5.049-14.049-5.049c-4.816,0-9.576,1.612-13.402,4.538c-0.04,0.031-0.079,0.062-0.118,0.093l-66.504,52.996     c-0.407,0.324-0.778,0.689-1.109,1.09l-42.727,51.751l-31.171,25.734c-1.515-1.379-3.385-2.371-5.47-2.818     c-4.28-0.916-8.692,0.598-11.507,3.953l-0.632,0.754c-5.228,6.24-13.126,15.669-22.154,19.641     c-47.429,20.862-109.978,52.734-138.625,86.099c-8.649,10.071-29.191,35.232-30.062,36.298     c-2.619,3.209-2.141,7.934,1.068,10.553c3.208,2.619,7.934,2.142,10.553-1.067c0.212-0.26,21.294-26.082,29.821-36.011     c28.226-32.874,95.622-65.575,133.284-82.141c10.229-4.5,18.373-12.956,24.347-19.879l9.069,32.061l3.348,11.836     c-40.023,11.666-119.863,46.135-147.085,77.839c-8.372,9.751-18.542,22.209-29.339,35.434     c-8.146,9.98-15.212,18.785-21.446,26.554c-22.901,28.539-35.518,44.258-55.81,61.248c-3.591,3.006-8.279,4.141-12.864,3.114     c-4.627-1.035-8.421-4.096-10.411-8.396c-2.85-6.159-1.238-13.477,3.92-17.797c19.818-16.603,35.812-36.847,54.331-60.287     c2.568-3.25,2.015-7.966-1.235-10.534c-3.251-2.569-7.968-2.015-10.534,1.235c-18.006,22.791-33.558,42.473-52.194,58.087     c-10.341,8.663-13.59,23.299-7.9,35.595c3.967,8.571,11.529,14.67,20.747,16.733c2.212,0.495,4.436,0.738,6.639,0.738     c6.938,0,13.667-2.415,19.13-6.989c21.432-17.942,34.378-34.075,57.88-63.361c6.216-7.746,13.261-16.525,21.395-26.49     c10.708-13.117,20.82-25.505,29.071-35.114c25.602-29.816,106.577-64.046,142.807-74.034c3.045-0.839,5.575-2.817,7.126-5.57     c0.849-1.507,1.335-3.146,1.474-4.819l14.83-12.243c0.336,0.344,0.684,0.68,1.031,1.017c0.213,0.215,0.424,0.433,0.639,0.644     l-12.241,14.826c-4.882,0.404-9.079,3.829-10.397,8.607c-9.989,36.228-44.22,117.199-74.036,142.799     c-9.593,8.234-21.954,18.325-35.042,29.008l-0.108,0.088c-9.933,8.107-18.712,15.151-26.458,21.367     c-29.288,23.5-45.421,36.446-63.364,57.877c-6.027,7.198-8.306,16.589-6.252,25.766c2.063,9.22,8.163,16.781,16.734,20.747     c3.997,1.85,8.252,2.788,12.646,2.788c8.896,0,17.26-3.896,22.949-10.687c15.614-18.637,35.5-34.345,58.524-52.533     c7.492-5.919,15.24-12.04,23.392-18.692c13.404-10.941,26.064-21.273,36.235-30.007c33.369-28.648,65.242-91.194,86.103-138.619     c3.973-9.031,13.404-16.929,19.646-22.156l0.75-0.628c3.356-2.815,4.871-7.225,3.952-11.508     c-0.447-2.084-1.438-3.954-2.817-5.469l25.732-31.167l51.756-42.726c0.401-0.331,0.767-0.703,1.091-1.109l13.86-17.392     c2.582-3.239,2.048-7.958-1.191-10.54c-3.238-2.582-7.958-2.049-10.539,1.191l-13.374,16.78l-23.182,19.137     c0.709-4.593,0.855-9.306,0.401-14.052c-0.764-8.002-3.174-15.586-7.018-22.378l76.419-64.092l5.636,6.825     c2.091,2.534,2.171,6.119,0.199,8.74l-20.132,25.262c-2.581,3.239-2.048,7.958,1.191,10.54c3.239,2.582,7.959,2.049,10.539-1.191     l20.187-25.332c0.031-0.039,0.062-0.078,0.092-0.118C513.705,71.853,513.495,60.566,506.921,52.604z M305.223,182.388     l-2.161-7.638l-6.791-24.007l11.948-9.864c-1.301,11.52,0.99,23.257,6.683,33.519L305.223,182.388z M375.271,68.888     l65.822-52.453c1.233-0.927,2.699-1.417,4.243-1.417c1.639,0,3.237,0.574,4.499,1.617l6.825,5.634l-64.119,76.444     c-11.105-6.259-23.999-8.528-36.451-6.593L375.271,68.888z M340.501,255.397c-16.565,37.66-49.266,105.051-82.144,133.278     c-10.029,8.611-22.619,18.887-36.013,29.819c-7.995,6.525-15.694,12.608-23.142,18.49     c-23.673,18.701-44.118,34.852-60.724,54.671c-2.832,3.381-7.006,5.32-11.452,5.32c-2.203,0-4.339-0.471-6.348-1.401     c-4.301-1.99-7.361-5.784-8.396-10.411c-1.026-4.584,0.109-9.272,3.114-12.86c16.989-20.291,32.712-32.907,61.252-55.808     c7.77-6.234,16.574-13.299,26.555-21.446l0.109-0.089c13.161-10.744,25.594-20.891,35.327-29.247     c31.707-27.222,66.179-107.059,77.842-147.078l43.898,12.417C353.457,237.026,345.001,245.168,340.501,255.397z M361.241,215.707     l-31.646-8.952l7.984-9.67c8.394,4.658,17.779,7.044,27.225,7.043c2.098,0,4.199-0.122,6.293-0.359L361.241,215.707z      M396.115,173.465l-5.274,6.387l-0.529,0.44c-0.155,0.102-0.31,0.209-0.46,0.324c-14.527,11.074-33.946,11.119-48.29,1.301     c-0.338-0.357-0.71-0.684-1.118-0.972c-0.856-0.605-1.702-1.251-2.514-1.921c-0.917-0.757-1.785-1.552-2.621-2.368     c-0.811-0.831-1.601-1.694-2.354-2.606c-0.671-0.813-1.317-1.659-1.92-2.514c-0.288-0.408-0.616-0.781-0.973-1.119     c-9.818-14.342-9.774-33.759,1.301-48.285c0.113-0.149,0.221-0.302,0.322-0.458l0.442-0.535l6.385-5.272     c16.448-13.578,40.364-12.264,55.261,2.374c6.617,6.733,10.701,15.455,11.613,24.983     C406.436,154.212,403.143,164.952,396.115,173.465z"/>
			<path d="M364.679,113.883c-19.078,0-34.601,15.52-34.601,34.599c0,19.078,15.521,34.599,34.601,34.599     s34.602-15.52,34.602-34.599S383.758,113.883,364.679,113.883z M364.679,168.081c-10.809,0-19.601-8.792-19.601-19.599     s8.793-19.599,19.601-19.599s19.602,8.792,19.602,19.599S375.486,168.081,364.679,168.081z"/>
		</g>
	</g>
</g>
<g>
</g>
<g>
</g>
<g>
</g>
<g>
</g>
<g>
</g>
<g>
</g>
<g>
</g>
<g>
</g>
<g>
</g>
<g>
</g>
<g>
</g>
<g>
</g>
<g>
</g>
<g>
</g>
<g>
</g>
</svg>
