<?xml version="1.0" encoding="iso-8859-1"?>
<!-- Generator: Adobe Illustrator 19.0.0, SVG Export Plug-In . SVG Version: 6.00 Build 0)  -->
<svg xmlns="http://www.w3.org/2000/svg" xmlns:xlink="http://www.w3.org/1999/xlink" version="1.1" id="Layer_1" x="0px" y="0px" viewBox="0 0 512 512" style="enable-background:new 0 0 512 512;" xml:space="preserve">
<g>
	<g>
		<g>
			<path d="M394.679,373.421c-4.128-0.449-7.818,2.532-8.263,6.65C379.205,446.731,323.138,497,255.997,497     c-67.158,0-123.228-50.284-130.422-116.964c-0.444-4.118-4.14-7.104-8.261-6.652c-4.118,0.444-7.096,4.143-6.652,8.261     c3.844,35.627,20.665,68.536,47.365,92.663c26.897,24.306,61.69,37.692,97.97,37.692c36.272,0,71.061-13.381,97.956-37.679     c26.697-24.119,43.521-57.018,47.374-92.636C401.775,377.566,398.797,373.867,394.679,373.421z"/>
			<path d="M117.315,358.182c4.111,0.446,7.816-2.533,8.262-6.651c7.198-66.675,63.267-116.955,130.421-116.955     c67.174,0,123.244,50.296,130.425,116.993c0.414,3.846,3.666,6.698,7.448,6.698c0.268,0,0.539-0.014,0.812-0.043     c4.118-0.443,7.098-4.142,6.654-8.26c-3.837-35.635-20.655-68.551-47.356-92.686c-25.04-22.632-56.925-35.792-90.482-37.505     v-28.017c17.783-3.504,31.239-19.212,31.239-38.01s-13.456-34.506-31.239-38.01V98.127h29.139     c6.671,0,12.501-4.741,13.862-11.273c0.013-0.063,0.025-0.127,0.037-0.19l7.822-43.104h12.737     c8.181,0,14.837-6.656,14.837-14.836V14.836C341.933,6.656,335.276,0,327.096,0H184.9c-8.181,0-14.836,6.656-14.836,14.836     v13.887c0,8.181,6.656,14.836,14.836,14.836h12.738l7.822,43.104c0.011,0.063,0.024,0.126,0.037,0.189     c1.36,6.533,7.19,11.274,13.863,11.274h29.138V122.5c0,4.142,3.358,7.5,7.5,7.5c13.09,0,23.739,10.652,23.739,23.746     s-10.649,23.745-23.739,23.745s-23.74-10.652-23.74-23.745c0-4.142-3.358-7.5-7.5-7.5c-4.142,0-7.5,3.358-7.5,7.5     c0,18.798,13.456,34.506,31.24,38.01v28.017c-33.55,1.712-65.429,14.867-90.467,37.491     c-26.699,24.125-43.521,57.031-47.367,92.656C110.218,354.038,113.197,357.737,117.315,358.182z M185.064,28.56V15h141.869v13.56     H185.064z M220.064,83.127l-7.181-39.567h86.23l-7.181,39.567H220.064z"/>
			<path d="M147.617,365.966c0,4.142,3.358,7.5,7.5,7.5c4.142,0,7.5-3.358,7.5-7.5c0-51.489,41.889-93.378,93.378-93.378     c4.142,0,7.5-3.358,7.5-7.5c0-4.142-3.358-7.5-7.5-7.5C196.234,257.588,147.617,306.206,147.617,365.966z"/>
		</g>
	</g>
</g>
<g>
</g>
<g>
</g>
<g>
</g>
<g>
</g>
<g>
</g>
<g>
</g>
<g>
</g>
<g>
</g>
<g>
</g>
<g>
</g>
<g>
</g>
<g>
</g>
<g>
</g>
<g>
</g>
<g>
</g>
</svg>
