<?xml version="1.0" encoding="iso-8859-1"?>
<!-- Generator: Adobe Illustrator 19.0.0, SVG Export Plug-In . SVG Version: 6.00 Build 0)  -->
<svg xmlns="http://www.w3.org/2000/svg" xmlns:xlink="http://www.w3.org/1999/xlink" version="1.1" id="Layer_1" x="0px" y="0px" viewBox="0 0 512 512" style="enable-background:new 0 0 512 512;" xml:space="preserve">
<g>
	<g>
		<g>
			<path d="M493.984,354.048H464c-4.142,0-7.5,3.358-7.5,7.5c0,4.142,3.358,7.5,7.5,7.5h29.984c1.663,0,3.016,1.353,3.016,3.016     v6.71H15v-6.71c0-1.663,1.353-3.016,3.016-3.016h29.797c4.142,0,7.5-3.358,7.5-7.5c0-4.142-3.358-7.5-7.5-7.5H18.016     C8.082,354.048,0,362.13,0,372.064v77.035v14.21c0,9.934,8.082,18.016,18.016,18.016h475.968c9.934,0,18.016-8.082,18.016-18.016     v-14.21v-77.035C512,362.13,503.918,354.048,493.984,354.048z M497,463.309c0,1.663-1.353,3.016-3.016,3.016H18.016     c-1.663,0-3.016-1.353-3.016-3.016v-6.71h482V463.309z M497,441.599H15v-47.825h482V441.599z"/>
			<path d="M78.417,369.048h355.52c4.142,0,7.5-3.358,7.5-7.5c0-4.142-3.358-7.5-7.5-7.5h-30.85L263.5,276.393v-34.772     c19.392-3.544,34.141-20.555,34.141-40.958s-14.749-37.414-34.141-40.958v-20.524h32.541c6.963,0,13.048-4.948,14.468-11.766     c0.013-0.063,0.026-0.126,0.037-0.19l8.899-49.037h3.557c9.293,0,16.853-7.56,16.853-16.853V47.527     c0-9.292-7.56-16.853-16.853-16.853H188.998c-9.293,0-16.853,7.56-16.853,16.853v13.809c0,9.293,7.56,16.853,16.853,16.853h3.557     l8.899,49.037c0.011,0.063,0.024,0.127,0.037,0.19c1.42,6.818,7.504,11.766,14.468,11.766H248.5v27.334     c0,4.142,3.358,7.5,7.5,7.5c14.689,0,26.641,11.954,26.641,26.647c0,14.693-11.952,26.648-26.641,26.648     c-14.689,0-26.641-11.954-26.641-26.647c0-4.142-3.358-7.5-7.5-7.5c-4.142,0-7.5,3.358-7.5,7.5     c0,20.403,14.749,37.414,34.141,40.958v34.772l-139.587,77.655H78.417c-4.142,0-7.5,3.358-7.5,7.5     C70.917,365.691,74.275,369.048,78.417,369.048z M198.816,63.19h-9.819c-1.021,0-1.852-0.831-1.852-1.853V47.527     c0-1.021,0.831-1.853,1.853-1.853h134.005c1.022,0,1.853,0.831,1.853,1.853v13.809c0,1.022-0.831,1.853-1.853,1.853h-9.819     H198.816z M216.146,124.183L207.8,78.19h96.4l-8.347,45.993H216.146z M256,289.386l116.233,64.662H139.767L256,289.386z"/>
		</g>
	</g>
</g>
<g>
</g>
<g>
</g>
<g>
</g>
<g>
</g>
<g>
</g>
<g>
</g>
<g>
</g>
<g>
</g>
<g>
</g>
<g>
</g>
<g>
</g>
<g>
</g>
<g>
</g>
<g>
</g>
<g>
</g>
</svg>
