<?xml version="1.0" encoding="iso-8859-1"?>
<!-- Generator: Adobe Illustrator 19.0.0, SVG Export Plug-In . SVG Version: 6.00 Build 0)  -->
<svg xmlns="http://www.w3.org/2000/svg" xmlns:xlink="http://www.w3.org/1999/xlink" version="1.1" id="Layer_1" x="0px" y="0px" viewBox="0 0 511.999 511.999" style="enable-background:new 0 0 511.999 511.999;" xml:space="preserve">
<g>
	<g>
		<g>
			<path d="M502.908,216.821l-22.482-22.52c-2.886-2.89-7.567-2.895-10.458-0.009c-2.89,2.886-2.895,7.567-0.009,10.458     l22.482,22.52c1.085,1.087,1.193,2.356,1.161,3.017c-0.032,0.66-0.262,1.912-1.445,2.887L341.165,357.681l-189.83-190.165     L275.638,16.238c0.971-1.182,2.213-1.412,2.867-1.443c0.65-0.03,1.91,0.077,2.989,1.158l13.339,13.362l-52.618,52.711     c-10.402,10.421-10.401,27.377,0,37.797c5.043,5.053,11.749,7.835,18.883,7.835c7.134,0,13.841-2.782,18.883-7.834l2.809-2.814     c2.249-2.253,5.238-3.494,8.418-3.494c3.179,0,6.168,1.241,8.418,3.494c4.652,4.66,4.652,12.242,0,16.902l-20.695,20.732     c-10.402,10.42-10.402,27.377,0,37.797c5.044,5.053,11.75,7.835,18.884,7.835c7.134,0,13.84-2.782,18.909-7.86l70.132-70.917     l61.88,61.99c2.885,2.89,7.566,2.895,10.458,0.009c2.89-2.885,2.895-7.567,0.009-10.458L291.96,5.504     c-3.732-3.739-8.886-5.739-14.171-5.482c-5.275,0.255-10.224,2.743-13.579,6.826L140.272,157.686     c-1.508-0.646-3.144-0.991-4.835-0.991c-3.285,0-6.373,1.281-8.696,3.607l-13.921,13.947c-4.597,4.607-4.763,11.983-0.522,16.806     c-12.439,16.518-18.393,37.296-16.437,58.03c1.816,19.25,10.333,37.382,23.983,51.056l19.696,19.73l-36.802,33.357     c-3.026,2.743-3.255,7.419-0.514,10.445c2.743,3.026,7.419,3.255,10.445,0.514l42.551-38.567c1.5-1.359,2.376-3.272,2.426-5.294     c0.05-2.022-0.73-3.977-2.158-5.409l-25.177-25.222c-11.227-11.246-18.232-26.161-19.726-41.996     c-1.542-16.345,2.888-32.724,12.263-46.018l184.22,184.546c-13.271,9.399-29.623,13.841-45.936,12.294     c-15.8-1.496-30.684-8.511-41.908-19.756l-18.676-18.71c-1.432-1.434-3.389-2.219-5.413-2.168     c-2.025,0.049-3.942,0.927-5.3,2.428L75.621,486.407c-6.106,6.74-14.469,10.574-23.551,10.795     c-9.071,0.218-17.617-3.202-24.042-9.637c-6.434-6.446-9.852-15.015-9.626-24.129c0.228-9.114,4.068-17.5,10.815-23.615     l61.21-55.479c3.026-2.743,3.256-7.419,0.514-10.445c-2.742-3.026-7.419-3.255-10.445-0.514l-61.21,55.479     c-9.773,8.859-15.338,21.006-15.667,34.204c-0.329,13.198,4.622,25.61,13.943,34.947c9.032,9.048,20.949,13.987,33.67,13.987     c0.398,0,0.798-0.005,1.197-0.015c13.171-0.32,25.301-5.878,34.152-15.651L195.573,376l13.183,13.206     c13.653,13.677,31.758,22.211,50.98,24.032c20.699,1.955,41.438-4.003,57.929-16.456c2.244,1.977,5.086,3.067,8.102,3.067     c3.286,0,6.375-1.282,8.696-3.607l13.921-13.945c3.648-3.655,4.506-9.054,2.591-13.539l150.592-124.176     c4.071-3.357,6.552-8.307,6.808-13.582C508.63,225.725,506.637,220.558,502.908,216.821z M376.406,111.033l-70.174,70.961     c-2.249,2.253-5.238,3.494-8.418,3.494s-6.168-1.241-8.418-3.494c-4.652-4.66-4.652-12.242,0-16.902l20.695-20.732     c10.402-10.42,10.402-27.377,0-37.797c-5.044-5.053-11.75-7.835-18.884-7.835c-7.134,0-13.841,2.782-18.883,7.834l-2.809,2.814     c-2.249,2.253-5.238,3.494-8.418,3.494c-3.179,0-6.168-1.241-8.417-3.494c-4.652-4.659-4.652-12.242,0-16.902l52.599-52.693     L376.406,111.033z M325.766,384.022l-2.406-2.41v-0.001L127.463,185.369c-0.001-0.001-0.003-0.003-0.004-0.004l-2.42-2.424     l10.398-10.416l0.696,0.697c0.001,0.001,0.001,0.002,0.002,0.002l200.029,200.382L325.766,384.022z"/>
			<path d="M29.8,461.822c0,13.02,10.579,23.612,23.582,23.612c13.003,0,23.583-10.592,23.583-23.612S66.386,438.21,53.382,438.21     C40.38,438.21,29.8,448.802,29.8,461.822z M62.178,461.822c0,4.866-3.945,8.823-8.794,8.823c-4.849,0-8.793-3.957-8.793-8.823     s3.945-8.823,8.793-8.823S62.178,456.956,62.178,461.822z"/>
		</g>
	</g>
</g>
<g>
</g>
<g>
</g>
<g>
</g>
<g>
</g>
<g>
</g>
<g>
</g>
<g>
</g>
<g>
</g>
<g>
</g>
<g>
</g>
<g>
</g>
<g>
</g>
<g>
</g>
<g>
</g>
<g>
</g>
</svg>
