<?xml version="1.0" encoding="iso-8859-1"?>
<!-- Generator: Adobe Illustrator 19.0.0, SVG Export Plug-In . SVG Version: 6.00 Build 0)  -->
<svg xmlns="http://www.w3.org/2000/svg" xmlns:xlink="http://www.w3.org/1999/xlink" version="1.1" id="Layer_1" x="0px" y="0px" viewBox="0 0 512 512" style="enable-background:new 0 0 512 512;" xml:space="preserve">
<g>
	<g>
		<path d="M507.216,166.272l-20.107-20.105c-0.276-0.276-0.574-0.531-0.89-0.761l-31.195-22.699c0.24-1.064,0.364-2.163,0.364-3.28    c0-3.936-1.533-7.636-4.316-10.418l-11.679-11.678c-2.927-2.928-7.676-2.929-10.606,0c-2.929,2.929-2.929,7.678,0.001,10.607    l11.489,11.489l-0.217,0.217l-0.001,0.001l-0.001,0.001l-39.05,39.047c-1.297-0.058-2.611,0.03-3.917,0.293l-14.307,2.885    c-4.87,0.984-9.848-0.074-13.85-2.839c-0.034-0.025-0.064-0.053-0.099-0.078c-0.417-0.292-0.816-0.6-1.201-0.918    c-0.042-0.035-0.085-0.069-0.126-0.105c-0.384-0.323-0.753-0.657-1.099-1.003l-36.934-36.93c-1.058-1.058-1.641-2.464-1.641-3.959    c0-1.496,0.583-2.901,1.641-3.96l21.95-21.947c7.945-7.946,7.967-20.869,0.046-28.809c-16.211-16.245-40.588-21.258-61.78-13.039    l-2.037-2.037c25.927-19.242,62.557-16.881,85.822,6.383l34.017,34.013c2.928,2.929,7.677,2.928,10.606,0    c2.929-2.929,2.929-7.678-0.001-10.607l-34.017-34.013c-30.302-30.299-79.07-31.711-111.022-3.215    c-1.927,1.717-3.073,4.179-3.146,6.755c-0.073,2.568,0.927,5.083,2.743,6.898l9.113,9.114c2.786,2.788,7.063,3.532,10.648,1.849    c16.273-7.643,35.739-4.229,48.436,8.494c2.05,2.055,2.034,5.539-0.034,7.607l-21.949,21.947    c-3.892,3.891-6.035,9.064-6.035,14.567c0,4.89,1.701,9.514,4.808,13.215l-99.199,94.724c-2.995,2.861-3.105,7.608-0.244,10.604    c2.859,2.995,7.605,3.104,10.604,0.245l99.385-94.902l25.589,25.586L212.639,313.29l-32.242-32.239l26.529-25.333    c2.995-2.861,3.105-7.608,0.244-10.604c-2.861-2.996-7.606-3.105-10.604-0.245l-190,181.43c-4.115,3.93-6.432,9.214-6.551,14.894    c-0.001,0.07-0.012,0.138-0.013,0.208c-0.066,5.761,2.141,11.177,6.215,15.25l30.804,30.801c4.015,4.014,9.331,6.215,14.998,6.215    c0.002,0,0.004,0,0.006,0h0.001c0.081,0,0.162,0,0.244-0.001c0.403-0.005,0.798-0.046,1.197-0.073    c0.261-0.018,0.523-0.02,0.782-0.048c5.001-0.517,9.606-2.758,13.126-6.443l298.587-312.631c6.13,2.679,13.016,3.471,19.789,2.105    l14.307-2.886c0.24-0.047,0.482-0.022,0.699,0.062h0.001c0.217,0.085,0.41,0.23,0.552,0.426l23.645,32.488    c0.23,0.316,0.485,0.614,0.762,0.89l20.106,20.105c3.185,3.184,7.365,4.776,11.548,4.775c4.181,0,8.363-1.592,11.546-4.775    l38.301-38.297c3.085-3.084,4.783-7.185,4.783-11.547C512,173.457,510.301,169.356,507.216,166.272z M16.822,446.044    c-1.194-1.194-1.841-2.781-1.821-4.47c0-0.026,0.004-0.051,0.005-0.076c0.039-1.659,0.716-3.202,1.919-4.35l152.618-145.734    l3.255,3.255L18.528,447.75L16.822,446.044z M35.313,464.534l-6.177-6.177l154.27-153.082l5.004,5.004L35.313,464.534z     M56.527,476.742c-0.147,0.154-0.301,0.299-0.461,0.436c-0.053,0.046-0.11,0.084-0.165,0.128    c-0.108,0.087-0.216,0.175-0.329,0.254c-0.083,0.058-0.171,0.107-0.257,0.161c-0.089,0.056-0.176,0.116-0.268,0.167    c-0.103,0.057-0.21,0.105-0.316,0.156c-0.079,0.038-0.156,0.081-0.236,0.116c-0.112,0.048-0.228,0.087-0.342,0.129    c-0.079,0.029-0.156,0.062-0.236,0.087c-0.113,0.036-0.23,0.062-0.345,0.092c-0.085,0.022-0.169,0.048-0.255,0.066    c-0.111,0.023-0.224,0.037-0.336,0.054c-0.095,0.014-0.188,0.033-0.284,0.043c-0.105,0.011-0.211,0.013-0.317,0.019    c-0.101,0.006-0.202,0.014-0.303,0.015c-1.667-0.02-3.261-0.631-4.451-1.82l-1.705-1.705l153.097-154.255l3.256,3.255    L56.527,476.742z M496.611,178.758l-38.302,38.297c-0.518,0.52-1.361,0.519-1.881,0l-19.691-19.69l-22.404-30.784l31.797-31.795    l30.789,22.403l19.692,19.69c0.321,0.321,0.389,0.688,0.389,0.939C497,178.07,496.932,178.437,496.611,178.758z"/>
	</g>
</g>
<g>
</g>
<g>
</g>
<g>
</g>
<g>
</g>
<g>
</g>
<g>
</g>
<g>
</g>
<g>
</g>
<g>
</g>
<g>
</g>
<g>
</g>
<g>
</g>
<g>
</g>
<g>
</g>
<g>
</g>
</svg>
