<?xml version="1.0" encoding="iso-8859-1"?>
<!-- Generator: Adobe Illustrator 19.0.0, SVG Export Plug-In . SVG Version: 6.00 Build 0)  -->
<svg xmlns="http://www.w3.org/2000/svg" xmlns:xlink="http://www.w3.org/1999/xlink" version="1.1" id="Layer_1" x="0px" y="0px" viewBox="0 0 512 512" style="enable-background:new 0 0 512 512;" xml:space="preserve">
<g>
	<g>
		<g>
			<path d="M144.008,316.547l-85.024,85.138c-2.923,2.927-2.92,7.67,0.007,10.592c1.462,1.46,3.378,2.19,5.293,2.19     c1.919,0,3.837-0.732,5.3-2.197l85.024-85.138c2.923-2.927,2.92-7.67-0.007-10.592     C151.675,313.618,146.932,313.62,144.008,316.547z"/>
			<path d="M164.314,336.88L79.29,422.019c-2.923,2.927-2.92,7.67,0.007,10.592c1.462,1.46,3.378,2.19,5.293,2.19     c1.919,0,3.837-0.732,5.3-2.197l85.024-85.139c2.923-2.927,2.92-7.67-0.007-10.592     C171.981,333.951,167.239,333.953,164.314,336.88z"/>
			<path d="M99.604,452.946c1.462,1.46,3.378,2.19,5.293,2.19c1.918,0,3.837-0.732,5.3-2.197l85.024-85.139     c2.923-2.927,2.92-7.67-0.007-10.592c-2.926-2.923-7.669-2.921-10.592,0.007l-85.024,85.139     C96.674,445.28,96.677,450.023,99.604,452.946z"/>
			<path d="M507.149,28.669L483.023,4.511C480.118,1.602,476.255,0,472.144,0c-3.269,0-6.395,1.018-9.04,2.942l-45.767,33.304     c-3.641,2.65-5.931,6.744-6.285,11.235c-0.354,4.492,1.269,8.897,4.452,12.085l1.226,1.227L262.534,215.198l-18.293-18.318     c-2.892-2.898-6.74-4.494-10.834-4.494s-7.94,1.596-10.834,4.493l-12.986,13.003c-5.964,5.973-5.964,15.693,0.001,21.667     l4.12,4.125l-37.523,18.645c-8.763,4.353-16.728,10.038-23.714,16.88c-0.006,0.006-0.013,0.011-0.02,0.017l-0.208,0.199     c-0.171,0.161-0.34,0.323-0.515,0.498l-54.727,54.801c-2.923,2.927-2.92,7.67,0.007,10.592c2.927,2.923,7.67,2.92,10.592-0.007     l50.084-50.152c0.001-0.001,0,0,0.001-0.001l67.192,67.283L104.945,474.525l-67.192-67.283L86.3,358.629     c2.923-2.927,2.92-7.67-0.007-10.592c-2.926-2.923-7.669-2.92-10.592,0.007L8.294,415.539c-10.62,10.633-10.62,27.936,0,38.57     l49.831,49.898C63.272,509.161,70.116,512,77.398,512c0,0,0,0,0.001,0c7.281,0,14.126-2.838,19.273-7.993l13.795-13.813     c0.002-0.002,0.004-0.003,0.006-0.005l129.631-129.806c0.172-0.173,0.341-0.35,0.508-0.526l0.183-0.192     c0.008-0.009,0.015-0.018,0.023-0.026c6.834-6.994,12.511-14.97,16.858-23.745l18.611-37.557l4.101,4.107     c2.893,2.896,6.741,4.492,10.834,4.492s7.94-1.595,10.834-4.492l12.986-13.003c5.965-5.973,5.965-15.693-0.001-21.667     l-18.308-18.333l105.991-106.133c2.923-2.927,2.92-7.67-0.007-10.592c-2.927-2.923-7.67-2.92-10.592,0.007L286.144,238.84     l-13.025-13.043L427.316,71.394l13.025,13.043l-26.824,26.86c-2.923,2.927-2.92,7.67,0.007,10.592     c2.926,2.923,7.669,2.921,10.592-0.007l26.81-26.846l1.211,1.213c2.904,2.909,6.764,4.511,10.871,4.511     c4.911,0,9.564-2.372,12.447-6.346l33.26-45.829C513.184,42.427,512.525,34.05,507.149,28.669z M86.073,493.421     c-2.317,2.321-5.398,3.598-8.674,3.598c-3.275,0-6.355-1.277-8.673-3.598l-49.832-49.899c-4.791-4.797-4.791-12.602,0-17.398     l8.272-8.283l67.192,67.283L86.073,493.421z M244.253,329.242c-2.523,5.089-5.584,9.853-9.119,14.254l-66.531-66.621     c4.399-3.546,9.161-6.615,14.247-9.142l42.023-20.88l40.239,40.294L244.253,329.242z M280.844,254.733     c0.002,0.002,0.003,0.003,0.005,0.005l23.589,23.62c0.134,0.135,0.134,0.362,0,0.496l-12.985,13.002     c-0.029,0.029-0.098,0.098-0.234,0.098c-0.136,0-0.205-0.069-0.234-0.098l-70.799-70.893c-0.137-0.137-0.136-0.359,0-0.496     l12.985-13.002c0.029-0.029,0.099-0.098,0.234-0.098c0.135,0,0.203,0.068,0.233,0.098l23.594,23.625L280.844,254.733z      M496.59,39.787l-33.26,45.829c-0.032,0.045-0.118,0.164-0.322,0.164c-0.137,0-0.211-0.056-0.271-0.116l-6.506-6.515     c-0.002-0.002-0.004-0.004-0.006-0.006l-23.611-23.642c-0.003-0.003-0.006-0.005-0.009-0.008l-6.503-6.511     c-0.039-0.04-0.133-0.134-0.118-0.324c0.015-0.189,0.12-0.266,0.166-0.299l45.768-33.305c0.043-0.033,0.114-0.075,0.224-0.075     c0.108,0,0.202,0.039,0.279,0.116l24.127,24.158C496.691,39.397,496.708,39.625,496.59,39.787z"/>
		</g>
	</g>
</g>
<g>
</g>
<g>
</g>
<g>
</g>
<g>
</g>
<g>
</g>
<g>
</g>
<g>
</g>
<g>
</g>
<g>
</g>
<g>
</g>
<g>
</g>
<g>
</g>
<g>
</g>
<g>
</g>
<g>
</g>
</svg>
