<?xml version="1.0" encoding="iso-8859-1"?>
<!-- Generator: Adobe Illustrator 19.0.0, SVG Export Plug-In . SVG Version: 6.00 Build 0)  -->
<svg xmlns="http://www.w3.org/2000/svg" xmlns:xlink="http://www.w3.org/1999/xlink" version="1.1" id="Layer_1" x="0px" y="0px" viewBox="0 0 512 512" style="enable-background:new 0 0 512 512;" xml:space="preserve">
<g>
	<g>
		<g>
			<path d="M280.177,267.277c0-64.465-52.334-116.912-116.662-116.912S46.852,202.811,46.852,267.277     c0,64.465,52.334,116.911,116.663,116.911C227.843,384.188,280.177,331.742,280.177,267.277z M61.853,267.277     c0-56.194,45.605-101.912,101.663-101.912c56.057,0,101.662,45.717,101.662,101.912c0,56.194-45.605,101.911-101.662,101.911     C107.458,369.188,61.853,323.471,61.853,267.277z"/>
			<path d="M248.31,267.277c0-46.853-38.039-84.971-84.795-84.971S78.72,220.424,78.72,267.277s38.039,84.971,84.795,84.971     S248.31,314.13,248.31,267.277z M163.515,337.249c-38.485,0-69.795-31.389-69.795-69.971c0-38.582,31.31-69.971,69.795-69.971     s69.795,31.389,69.795,69.971C233.31,305.859,202,337.249,163.515,337.249z"/>
			<path d="M487.801,291.272c-13.344,0-24.199,10.873-24.199,24.237v19.282H327.03v-55.674l16.884-9.158     c12.122-6.574,19.109-19.611,17.803-33.213c-0.867-9.031-2.363-18.069-4.447-26.861c-0.955-4.03-5.001-6.521-9.027-5.568     c-4.031,0.956-6.523,4.998-5.568,9.028c1.927,8.127,3.31,16.482,4.111,24.834c0.73,7.598-3.204,14.896-10.022,18.594     l-9.732,5.279v-6.053v-0.356c0-28.769-7.478-55.821-20.578-79.33l17.421-10.927c3.655,6.477,6.93,13.18,9.795,20.098     c1.584,3.827,5.972,5.645,9.8,4.06c3.826-1.585,5.644-5.972,4.06-9.799c-9.29-22.431-22.475-42.808-39.188-60.566     c-10.684-11.353-27.67-14.117-41.305-6.721l-13.025,7.065c-25.931-17.296-57.053-27.394-90.493-27.394     C73.353,92.128,0,165.481,0,255.643v34.161c0,4.142,3.358,7.5,7.5,7.5s7.5-3.358,7.5-7.5v-34.161     c0-81.891,66.624-148.515,148.515-148.515c32.572,0,62.722,10.549,87.232,28.397c0.569,0.415,1.141,0.826,1.703,1.248     c0.5,0.375,0.992,0.759,1.486,1.14c0.621,0.479,1.242,0.959,1.854,1.447c0.422,0.336,0.842,0.675,1.261,1.016     c0.762,0.621,1.518,1.247,2.266,1.882c0.258,0.218,0.518,0.435,0.774,0.655c32.744,28.151,51.939,69.484,51.939,113.086v18.653     v67.639v62.579H87.306c-39.87,0-72.306-32.436-72.306-72.305v-12.464c0-4.142-3.358-7.5-7.5-7.5s-7.5,3.358-7.5,7.5v12.464     c0,48.14,39.165,87.305,87.306,87.305H504.5c4.143,0,7.5-3.358,7.5-7.5v-96.861C512,302.145,501.145,291.272,487.801,291.272z      M277.629,138.656c-0.106-0.104-0.212-0.207-0.318-0.311c-0.864-0.839-1.738-1.667-2.62-2.487     c-0.265-0.247-0.528-0.495-0.795-0.74c-0.712-0.652-1.433-1.295-2.156-1.935c-0.399-0.354-0.794-0.712-1.197-1.062     c-0.422-0.366-0.852-0.722-1.277-1.083c-0.653-0.557-1.298-1.118-1.96-1.664l6.88-3.731c7.655-4.152,17.207-2.583,23.229,3.816     c6.838,7.265,13.034,15.005,18.565,23.171l-17.419,10.927C292.415,154.573,285.396,146.234,277.629,138.656z M463.602,404.87     H327.03v-55.079h14.483v28.327c0,4.142,3.357,7.5,7.5,7.5s7.5-3.358,7.5-7.5v-28.327h28.645v16.17c0,4.142,3.357,7.5,7.5,7.5     s7.5-3.358,7.5-7.5v-16.17h30.738v28.327c0,4.142,3.357,7.5,7.5,7.5s7.5-3.358,7.5-7.5v-28.327h17.706V404.87z M497,404.87     h-18.398v-62.579v-26.782c0-5.093,4.127-9.237,9.199-9.237c5.072,0,9.199,4.144,9.199,9.237V404.87z"/>
		</g>
	</g>
</g>
<g>
</g>
<g>
</g>
<g>
</g>
<g>
</g>
<g>
</g>
<g>
</g>
<g>
</g>
<g>
</g>
<g>
</g>
<g>
</g>
<g>
</g>
<g>
</g>
<g>
</g>
<g>
</g>
<g>
</g>
</svg>
