<?xml version="1.0" encoding="iso-8859-1"?>
<!-- Generator: Adobe Illustrator 19.0.0, SVG Export Plug-In . SVG Version: 6.00 Build 0)  -->
<svg xmlns="http://www.w3.org/2000/svg" xmlns:xlink="http://www.w3.org/1999/xlink" version="1.1" id="Layer_1" x="0px" y="0px" viewBox="0 0 512 512" style="enable-background:new 0 0 512 512;" xml:space="preserve">
<g>
	<g>
		<g>
			<path d="M215.76,414.367c4.143,0,7.5-3.358,7.5-7.5v-13.958c0-4.142-3.358-7.5-7.5-7.5c-4.143,0-7.5,3.358-7.5,7.5v13.958     C208.26,411.009,211.617,414.367,215.76,414.367z"/>
			<path d="M89.776,292.518h20.007v71.938c0,4.142,3.357,7.5,7.5,7.5s7.5-3.358,7.5-7.5v-71.938h262.436v72.009     c0,4.142,3.357,7.5,7.5,7.5s7.5-3.358,7.5-7.5v-72.009h20.007c4.875,0,9.124-3.126,10.573-7.778     c1.447-4.648-0.275-9.629-4.284-12.393L263.501,158.543v-17.518c14.323-3.391,25.015-16.259,25.015-31.581     c0-15.322-10.691-28.19-25.015-31.581V66.518h21.838c6.046,0,11.329-4.292,12.563-10.206c0.014-0.063,0.025-0.126,0.037-0.189     l7.422-40.801c0.748-3.756-0.205-7.607-2.625-10.584C300.287,1.727,296.657,0,292.774,0h-73.547     c-3.883,0-7.513,1.727-9.961,4.738c-2.42,2.977-3.373,6.828-2.625,10.584l7.422,40.801c0.012,0.063,0.023,0.126,0.037,0.189     c1.233,5.914,6.517,10.206,12.563,10.206h21.838v17.964c0,4.142,3.357,7.5,7.5,7.5c9.657,0,17.515,7.833,17.515,17.462     c0,9.629-7.857,17.462-17.515,17.462s-17.515-7.833-17.515-17.462c0-4.142-3.357-7.5-7.5-7.5s-7.5,3.358-7.5,7.5     c0,15.322,10.691,28.19,25.015,31.581v17.518L83.487,272.346c-4.01,2.765-5.731,7.746-4.284,12.394     C80.652,289.392,84.901,292.518,89.776,292.518z M228.471,51.518L221.829,15h68.344l-6.643,36.518H228.471z M256.001,171.591     l153.593,105.928H102.408L256.001,171.591z"/>
			<path d="M424.009,465.791h-21.79V394.79c0-4.142-3.357-7.5-7.5-7.5s-7.5,3.358-7.5,7.5v71.001H248.817V339.514     c0-9.772-7.951-17.723-17.724-17.723h-63.676c-9.772,0-17.724,7.951-17.724,17.723v126.277h-24.911v-71.084     c0-4.142-3.357-7.5-7.5-7.5s-7.5,3.358-7.5,7.5v71.084h-21.79c-8.723,0-15.818,7.096-15.818,15.818v14.573     c0,8.722,7.096,15.818,15.818,15.818h336.016c8.723,0,15.818-7.096,15.818-15.818v-14.573     C439.827,472.887,432.731,465.791,424.009,465.791z M167.418,336.791h63.676c1.502,0,2.724,1.222,2.724,2.723v126.277h-69.123     V339.514h-0.001C164.694,338.013,165.916,336.791,167.418,336.791z M424.827,496.182c0,0.451-0.367,0.818-0.818,0.818H87.993     c-0.451,0-0.818-0.367-0.818-0.818v-14.573c0-0.451,0.367-0.818,0.818-0.818h336.016c0.451,0,0.818,0.367,0.818,0.818V496.182z"/>
			<path d="M285.833,321.791c-9.656,0-17.512,7.855-17.512,17.511v43.596c0,9.656,7.855,17.511,17.512,17.511h55.039     c9.656,0,17.512-7.855,17.512-17.511v-43.596c0-9.656-7.855-17.511-17.511-17.511H285.833z M343.384,339.302v43.596     c0,1.385-1.127,2.511-2.512,2.511h-55.039c-1.385,0-2.512-1.126-2.512-2.511v-43.596c0-1.385,1.127-2.511,2.512-2.511h55.04     C342.258,336.791,343.384,337.917,343.384,339.302z"/>
		</g>
	</g>
</g>
<g>
</g>
<g>
</g>
<g>
</g>
<g>
</g>
<g>
</g>
<g>
</g>
<g>
</g>
<g>
</g>
<g>
</g>
<g>
</g>
<g>
</g>
<g>
</g>
<g>
</g>
<g>
</g>
<g>
</g>
</svg>
