<?xml version="1.0" encoding="iso-8859-1"?>
<!-- Generator: Adobe Illustrator 19.0.0, SVG Export Plug-In . SVG Version: 6.00 Build 0)  -->
<svg xmlns="http://www.w3.org/2000/svg" xmlns:xlink="http://www.w3.org/1999/xlink" version="1.1" id="Layer_1" x="0px" y="0px" viewBox="0 0 512 512" style="enable-background:new 0 0 512 512;" xml:space="preserve">
<g>
	<g>
		<path d="M487.092,55.284v-6.678c0-12.843-10.448-23.292-23.29-23.292h-30.148c-4.143,0-7.5,3.358-7.5,7.5    c0,4.142,3.357,7.5,7.5,7.5h30.148c4.571,0,8.29,3.72,8.29,8.292v13.292V75.19c0,4.572-3.719,8.292-8.29,8.292h-11.091h-79.369    V40.314h30.125c4.143,0,7.5-3.358,7.5-7.5c0-4.142-3.357-7.5-7.5-7.5h-37.625H93.779H48.198c-12.842,0-23.29,10.449-23.29,23.292    v6.678C10.644,58.678,0,71.52,0,86.809v85.002c0,44.712,16.048,87.969,45.188,121.802c2.139,2.483,4.344,4.896,6.601,7.254v87.724    c0,4.142,3.358,7.5,7.5,7.5c4.142,0,7.5-3.358,7.5-7.5v-73.678c24.135,20.232,53.075,34.133,84.085,40.175v7.984    c0,11.41,9.283,20.693,20.693,20.693h168.865c11.41,0,20.693-9.283,20.693-20.693v-7.984c31.01-6.042,59.95-19.943,84.085-40.175    v129.239c0,15.183-12.35,27.535-27.53,27.535H94.319c-15.18,0-27.53-12.352-27.53-27.535v-25.444c0-4.142-3.358-7.5-7.5-7.5    c-4.142,0-7.5,3.358-7.5,7.5v25.444c0,23.454,19.079,42.535,42.53,42.535H417.68c23.451,0,42.53-19.081,42.53-42.535V300.867    c2.256-2.358,4.462-4.771,6.601-7.254C495.952,259.78,512,216.523,512,171.811V86.809C512,71.52,501.356,58.678,487.092,55.284z     M101.278,40.314L101.278,40.314h257.064v83.858c0,14.619-11.892,26.512-26.508,26.512c-14.616,0-26.508-11.893-26.508-26.512    c0-4.142-3.357-7.5-7.5-7.5s-7.5,3.358-7.5,7.5v97.303c0,14.619-11.892,26.512-26.508,26.512h-0.001    c-14.616,0-26.507-11.893-26.507-26.512v-51.563c0-22.89-18.62-41.512-41.508-41.512s-41.508,18.623-41.508,41.512v6.996    c0,14.619-11.892,26.512-26.508,26.512c-14.616,0-26.508-11.893-26.508-26.512V40.314z M51.789,278.494    C28.6,249.108,15,211.987,15,171.811V86.809c0-6.916,4.053-12.903,9.908-15.71v4.092c0,12.843,10.448,23.292,23.29,23.292h3.591    V278.494z M59.289,83.482H48.198c-1.714,0-3.309-0.523-4.632-1.418c-2.206-1.492-3.658-4.016-3.658-6.874V48.606    c0-4.572,3.719-8.292,8.29-8.292h38.081v43.168H59.289z M346.126,348.809v14.262c0,3.139-2.554,5.693-5.693,5.693H171.567    c-3.139,0-5.693-2.554-5.693-5.693V348.81v-9.783c0-0.08,0.009-0.157,0.012-0.236c0.005-0.116,0.006-0.232,0.018-0.346    c0.133-1.302,0.708-2.472,1.57-3.366c0.024-0.025,0.046-0.053,0.07-0.077c0.025-0.025,0.052-0.046,0.077-0.07    c1.025-0.988,2.415-1.6,3.947-1.6h168.865c1.289,0,2.475,0.436,3.43,1.16c1.372,1.041,2.263,2.683,2.263,4.534V348.809z     M445.212,295.125c-22.599,21.964-51.417,37.792-84.086,44.675v-0.773c0-2.306-0.395-4.517-1.094-6.59    c-2.76-8.186-10.494-14.104-19.598-14.104h-0.001H171.567c-8.11,0-15.126,4.702-18.517,11.512    c-0.783,1.573-1.392,3.248-1.755,5.016c-0.028,0.137-0.039,0.28-0.064,0.418c-0.224,1.217-0.357,2.466-0.357,3.747v0.773    c-32.669-6.884-61.487-22.711-84.085-44.676V98.482h19.49v78.426c0,22.89,18.62,41.512,41.508,41.512s41.508-18.622,41.508-41.512    v-6.996c0-14.619,11.892-26.512,26.508-26.512c14.617,0,26.508,11.894,26.508,26.512v51.563c0,22.89,18.621,41.512,41.508,41.512    c22.887,0,41.508-18.622,41.508-41.512v-65.382c7.195,5.986,16.438,9.591,26.508,9.591c22.888,0,41.508-18.622,41.508-41.512    v-25.69h71.869V295.125z M497,171.811c0,40.176-13.601,77.297-36.789,106.681V98.482h3.591c12.842,0,23.29-10.449,23.29-23.292    v-4.092c5.855,2.807,9.908,8.794,9.908,15.71V171.811z"/>
	</g>
</g>
<g>
</g>
<g>
</g>
<g>
</g>
<g>
</g>
<g>
</g>
<g>
</g>
<g>
</g>
<g>
</g>
<g>
</g>
<g>
</g>
<g>
</g>
<g>
</g>
<g>
</g>
<g>
</g>
<g>
</g>
</svg>
