<?xml version="1.0" encoding="iso-8859-1"?>
<!-- Generator: Adobe Illustrator 19.0.0, SVG Export Plug-In . SVG Version: 6.00 Build 0)  -->
<svg xmlns="http://www.w3.org/2000/svg" xmlns:xlink="http://www.w3.org/1999/xlink" version="1.1" id="Layer_1" x="0px" y="0px" viewBox="0 0 512 512" style="enable-background:new 0 0 512 512;" xml:space="preserve">
<g>
	<g>
		<g>
			<path d="M133.81,111.709c-9.885,0-17.927,8.042-17.927,17.927v40.059c0,9.885,8.042,17.928,17.927,17.928h82.744     c9.885,0,17.927-8.042,17.927-17.928v-40.059c0-9.885-8.042-17.927-17.927-17.927H133.81z M219.481,129.637v40.059     c0,1.614-1.313,2.928-2.927,2.928H133.81c-1.614,0-2.927-1.313-2.927-2.928v-40.059c0-1.614,1.313-2.927,2.927-2.927h82.744     C218.168,126.709,219.481,128.022,219.481,129.637z"/>
			<path d="M83.087,119.209v60.914c0,4.142,3.358,7.5,7.5,7.5c4.142,0,7.5-3.358,7.5-7.5v-60.914c0-4.142-3.358-7.5-7.5-7.5     C86.445,111.709,83.087,115.067,83.087,119.209z"/>
			<path d="M50.46,119.209v60.914c0,4.142,3.358,7.5,7.5,7.5c4.142,0,7.5-3.358,7.5-7.5v-60.914c0-4.142-3.358-7.5-7.5-7.5     C53.818,111.709,50.46,115.067,50.46,119.209z"/>
			<path d="M28.849,214.104l15.312,6.743c7.704,3.393,11.799,12.063,9.527,20.167c-0.036,0.127-0.068,0.255-0.097,0.384     l-14.08,62.837c-0.906,4.042,1.637,8.052,5.679,8.958c0.552,0.124,1.103,0.183,1.646,0.183c3.433,0,6.53-2.372,7.312-5.862     l14.04-62.656c4.15-15.19-3.552-31.386-17.982-37.74l-15.312-6.743c-2.656-1.169-4.372-3.8-4.372-6.702v-87.952     c0-4.038,3.285-7.323,7.322-7.323H297.7c4.142,0,7.5-3.358,7.5-7.5c0-4.142-3.358-7.5-7.5-7.5H37.845     c-12.309,0-22.322,10.014-22.322,22.323v87.952C15.522,202.52,20.753,210.539,28.849,214.104z"/>
			<path d="M504.5,133.312h-82.743v-9.631c0-14.095-11.467-25.562-25.562-25.562H378.72c-3.225-8.59-11.52-14.72-21.222-14.72     H327.54c-4.142,0-7.5,3.358-7.5,7.5c0,4.142,3.358,7.5,7.5,7.5h29.958c4.225,0,7.662,3.437,7.662,7.662v74.063v0.712     c0,4.225-3.437,7.662-7.662,7.662h-74.69c-10.638,0-20.272,6.295-24.543,16.037l-1.517,3.459     c-1.881,4.29-6.123,7.061-10.806,7.061h-60.876c-15.157,0-28.6,10.193-32.691,24.788c-0.035,0.126-0.067,0.253-0.096,0.381     l-5.495,24.468v0.001l-21.872,97.386h-82.99l5.629-25.123c0.906-4.042-1.637-8.052-5.679-8.958     c-4.044-0.908-8.053,1.637-8.958,5.679L26.55,362.08H16.159C7.249,362.079,0,369.328,0,378.238v34.204     c0,8.91,7.249,16.159,16.159,16.159h172.41c8.91,0,16.159-7.249,16.159-16.159v-34.204c0-8.91-7.249-16.159-16.159-16.159     h-48.283l19.848-88.375h16.226c25.497,0,46.617-19.042,49.922-43.649h19.661c10.638,0,20.272-6.295,24.543-16.037l1.517-3.459     c1.881-4.29,6.123-7.061,10.806-7.061h74.69c10.132,0,18.731-6.684,21.622-15.874h17.075c14.095,0,25.562-11.467,25.562-25.562     v-13.75H504.5c4.142,0,7.5-3.358,7.5-7.5C512,136.67,508.642,133.312,504.5,133.312z M188.568,377.08L188.568,377.08     c0.639,0,1.159,0.52,1.159,1.159v34.204c0,0.639-0.52,1.159-1.159,1.159H16.159c-0.639,0-1.159-0.52-1.159-1.159v-9.602h68.37     c4.142,0,7.5-3.358,7.5-7.5c0-4.142-3.358-7.5-7.5-7.5H15v-9.602c0-0.639,0.52-1.159,1.159-1.159H188.568z M176.359,258.704     h-12.857l3.366-14.986c2.341-8.054,9.798-13.663,18.198-13.663h26.028C207.938,246.355,193.567,258.704,176.359,258.704z      M406.757,162.062c0,5.824-4.738,10.562-10.562,10.562H380.16V113.12h16.035c5.824,0,10.562,4.738,10.562,10.562V162.062z"/>
		</g>
	</g>
</g>
<g>
</g>
<g>
</g>
<g>
</g>
<g>
</g>
<g>
</g>
<g>
</g>
<g>
</g>
<g>
</g>
<g>
</g>
<g>
</g>
<g>
</g>
<g>
</g>
<g>
</g>
<g>
</g>
<g>
</g>
</svg>
